<svg width="17" height="17" viewBox="0 0 17 17" fill="none" xmlns="http://www.w3.org/2000/svg">
<path d="M12.5 16.5L16 14L11.1384 10.2226L10.7414 10.6388L12.5 16.5ZM15.6838 12L15.0593 11.9801L15.6838 10.7692L14.0184 9.81479L15.6838 12ZM15.3799 13.8769L14.1415 15.1748L15.0635 16.1523L16.3019 14.8543L15.3799 13.8769ZM13.387 15.5928C12.123 15.7169 8.85301 15.6063 5.31254 11.8954L4.39056 12.8728C8.25413 16.9223 11.9314 17.1201 13.5083 16.9651L13.387 15.5928ZM5.31254 11.8954C1.93773 8.35815 6.83105 5.42217 6.76146 4.13149L0.0036166 4.17058C0.0911908 5.79505 0.783407 9.09207 4.39056 12.8728L5.31254 11.8954ZM6.51145 6.21629L6.76146 5.95423L5.83951 4.97682L5.58949 5.23887L6.51145 6.21629ZM6.96047 2.61383L5.86126 1.06603L4.8145 1.89207L5.9137 3.43987L6.96047 2.61383ZM2.16423 0.729142L0.79596 2.16326L2.16423 3.02685L6.43709 4.13336L2.16423 0.729142ZM6.05047 5.72758C5.58949 5.23887 5.58824 5.24019 5.58824 5.24019L5.58697 5.24153L5.58437 5.2443C5.5826 5.2462 5.58077 5.24818 5.57888 5.25024C5.57511 5.25436 5.57112 5.25883 5.56692 5.26365C5.5585 5.27327 5.54927 5.28427 5.53939 5.29671C5.51962 5.32156 5.49723 5.35217 5.47369 5.38879C5.42651 5.4622 5.37509 5.55927 5.33146 5.68133C5.24243 5.9304 2.56538 7.88716 2.62522 8.29372C2.74224 9.08883 3.98184 10.9894 5.31254 12.3841L8.14368 8.92796C6.89841 7.62274 6.60176 6.82844 6.54666 6.45399C6.52042 6.27579 6.54762 6.18808 6.55512 6.16731C6.55965 6.15447 6.56183 6.15315 6.55625 6.16193C6.55346 6.16622 6.54884 6.17293 6.54161 6.18199C6.53803 6.18652 6.53376 6.19164 6.52879 6.19736C6.52627 6.20022 6.52365 6.20322 6.52069 6.20637C6.51929 6.20795 6.51781 6.20956 6.51624 6.21122L6.51389 6.21372L6.51267 6.215C6.51267 6.215 6.51145 6.21629 6.05047 5.72758ZM5.31254 12.3841C6.64367 13.7793 12.1906 18.4813 12.5 14.8543C12.8861 14.9167 11.0068 11.9783 11.2429 11.8856C11.3587 11.8401 11.1732 14.0493 11.2429 14C11.2778 13.9754 11.5847 11.6893 11.6083 11.6686C12.4044 14.3656 14.6025 11.6162 11.6398 11.6398C10 11.6162 9.99608 12.004 10 12C10.002 11.998 11.6564 11.6234 11.6582 11.6215L11.6609 11.6188L11.6622 11.6175C11.6622 11.6175 11.6634 11.6162 11.2024 11.1274C10.7414 10.6388 10.7427 10.6375 10.7427 10.6375L10.7439 10.6362L10.7462 10.6337C10.7479 10.6322 10.7494 10.6306 10.7509 10.629C10.7539 10.626 10.7568 10.6232 10.7595 10.6206C10.7649 10.6154 10.7698 10.6109 10.7741 10.6073C10.7827 10.5997 10.789 10.5949 10.793 10.5921C10.8011 10.5864 10.7994 10.589 10.7865 10.594C10.7652 10.6024 10.6796 10.6311 10.5077 10.6033C10.1474 10.5451 9.3886 10.2327 8.14368 8.92796L5.31254 12.3841ZM5.86126 1.06603C4.9727 -0.185138 3.22542 -0.383115 2.16423 0.729142L6.43709 4.13336C6.90057 3.64757 4.37285 1.27021 4.8145 1.89207L5.86126 1.06603ZM6.76146 4.13149C6.74431 3.81344 3.96429 2.16326 2.16423 3.02685L0.79596 2.16326C0.327561 2.6542 -0.0406761 3.34917 0.0036166 4.17058L6.76146 4.13149ZM14.1415 15.1748C13.902 15.426 13.6452 15.5674 13.387 15.5928L13.5083 16.9651C14.1487 16.9022 14.6734 16.5612 15.0635 16.1523L14.1415 15.1748ZM6.76146 5.95423C7.61968 5.0547 7.68349 3.63187 6.96047 2.61383L5.9137 3.43987C6.26544 3.93514 6.21314 4.58521 5.83951 4.97682L6.76146 5.95423ZM15.0593 11.9801C15.7722 12.3886 15.8833 13.3493 15.3799 13.8769L16.3019 14.8543C17.4703 13.6297 17.11 11.5863 15.6838 10.7692L15.0593 11.9801ZM16 14C16.3347 13.6492 15.224 11.7366 15.6838 12L14.0184 9.81479C13.0738 9.27347 11.9015 9.42297 11.1384 10.2226L16 14Z" fill="white"/>
</svg>
