<svg width="71" height="68" viewBox="0 0 71 68" fill="none" xmlns="http://www.w3.org/2000/svg">
<path d="M33.2812 4.25C16.1536 4.25 2.21875 17.5961 2.21875 34C2.21875 50.4039 16.1536 63.75 33.2812 63.75H36.6094C53.737 63.75 67.6719 50.4039 67.6719 34C67.6719 28.2635 65.9644 22.9037 63.0155 18.3551L68.8246 12.7915L65.6871 9.78662L60.3764 14.8729C54.6738 8.38331 46.1378 4.25 36.6094 4.25H33.2812ZM36.6094 8.5C44.9146 8.5 52.3416 12.1624 57.2281 17.8882L37.0254 37.2373L24.0336 24.7944L20.8961 27.7993L37.0254 43.2471L59.7762 21.4575C61.9728 25.1641 63.2344 29.442 63.2344 34C63.2344 48.0611 51.2897 59.5 36.6094 59.5C21.929 59.5 9.98438 48.0611 9.98438 34C9.98438 19.9389 21.929 8.5 36.6094 8.5Z" fill="white"/>
</svg>
