<svg width="119" height="99" viewBox="0 0 119 99" fill="none" xmlns="http://www.w3.org/2000/svg">
<path d="M31.4986 36.7849C32.0853 36.7838 32.5921 36.9096 33.0192 37.1622C33.4463 37.4081 33.7735 37.7675 34.0009 38.2404C34.2283 38.7067 34.3425 39.2632 34.3435 39.9098C34.3446 40.6032 34.2088 41.2201 33.9364 41.7606C33.6639 42.2944 33.2812 42.7084 32.7883 43.0026C32.2954 43.2968 31.729 43.4445 31.089 43.4456C30.249 43.4471 29.5786 43.1883 29.0778 42.6691C28.5836 42.1434 28.3158 41.4205 28.2744 40.5006C27.8211 40.5014 27.4111 40.5154 27.0445 40.5427L27.0167 42.0128C27.0172 42.2861 27.0441 42.4694 27.0976 42.5626C27.1511 42.6559 27.2545 42.7024 27.4078 42.7021C27.4945 42.7019 27.6178 42.6917 27.7778 42.6714L27.8279 42.7314L27.7388 43.3615C27.2988 43.3423 26.9188 43.333 26.5988 43.3335C26.1388 43.3343 25.5922 43.3653 24.9589 43.4264L25.0279 42.7863C25.3145 42.7325 25.5044 42.6488 25.5975 42.5353C25.6974 42.4218 25.7471 42.225 25.7466 41.945L25.7406 38.075C25.7403 37.8684 25.7168 37.7317 25.67 37.6652C25.6232 37.5919 25.5265 37.5554 25.3798 37.5557L25.0798 37.5662L25.0297 37.4863L25.0988 36.9062L26.2888 36.9141C26.7355 36.9133 27.2321 36.8891 27.7787 36.8414L27.7197 37.5015C27.5464 37.5285 27.4198 37.5654 27.3399 37.6122C27.2666 37.6523 27.2134 37.7158 27.1802 37.8025C27.1537 37.8892 27.1339 38.0292 27.1208 38.2226L27.0631 39.6627C27.4098 39.6754 27.6665 39.6816 27.8331 39.6813C28.0465 39.681 28.2064 39.6773 28.3131 39.6705C28.3855 39.0904 28.5614 38.5834 28.8407 38.1496C29.1267 37.7157 29.4962 37.3817 29.9492 37.1476C30.4021 36.9068 30.9186 36.7859 31.4986 36.7849ZM31.3476 42.5951C31.8076 42.5943 32.1674 42.407 32.4268 42.0332C32.6862 41.6528 32.8154 41.1192 32.8143 40.4325C32.8129 39.5592 32.6719 38.8928 32.3912 38.4333C32.1105 37.9671 31.7168 37.7345 31.2101 37.7354C30.7568 37.7362 30.4037 37.9268 30.151 38.3072C29.8982 38.681 29.7724 39.2112 29.7735 39.8979C29.7748 40.7712 29.9125 41.441 30.1866 41.9072C30.4606 42.3667 30.8477 42.596 31.3476 42.5951ZM35.0766 42.8085C35.2899 42.7748 35.4331 42.7112 35.5063 42.6178C35.5861 42.5243 35.6259 42.3709 35.6256 42.1576L35.6311 39.2876C35.6308 39.1209 35.6107 39.0109 35.5706 38.9577C35.5372 38.8977 35.4738 38.8678 35.3805 38.868L35.0905 38.8785L35.0304 38.8086L35.1096 38.2985L36.1696 38.3066C36.3896 38.3062 36.6329 38.3024 36.8996 38.2953C37.1729 38.2815 37.3629 38.2712 37.4695 38.2643C38.2095 38.263 38.7331 38.4121 39.0402 38.7115C39.354 39.0043 39.5112 39.364 39.5119 39.7907C39.5124 40.104 39.4195 40.3975 39.2333 40.6712C39.047 40.9448 38.8007 41.1653 38.4943 41.3325C38.1945 41.4997 37.8713 41.5836 37.5247 41.5842L36.8247 41.5854L36.8155 42.1055C36.8158 42.2921 36.826 42.4321 36.8461 42.5254C36.8663 42.612 36.903 42.672 36.9564 42.7052C37.0098 42.7385 37.0932 42.755 37.2065 42.7548L37.5565 42.7442L37.5866 42.7941L37.5074 43.3342C37.4207 43.3344 37.2674 43.3313 37.0474 43.3251C36.8274 43.3188 36.6174 43.3158 36.4174 43.3162C36.244 43.3165 35.9907 43.3236 35.6574 43.3375C35.3308 43.3581 35.1141 43.3718 35.0075 43.3787L35.0766 42.8085ZM37.5336 40.9142C38.0001 40.8067 38.2329 40.4696 38.2321 39.903C38.2316 39.5963 38.1379 39.3731 37.951 39.2334C37.7708 39.0871 37.484 39.0143 37.0907 39.015C37.0174 39.0151 36.9707 39.0252 36.9507 39.0452C36.9308 39.0586 36.9175 39.0986 36.9109 39.1653C36.8719 39.8254 36.8495 40.3787 36.8435 40.8254L37.5336 40.9142ZM45.6368 42.7799L45.5676 43.32C45.4876 43.3201 45.3309 43.3171 45.0976 43.3108C44.8643 43.3046 44.6076 43.3017 44.3276 43.3022L43.1376 43.3143L43.2067 42.7542C43.4334 42.7471 43.5867 42.6968 43.6665 42.6033C43.7464 42.5099 43.7861 42.3331 43.7857 42.0731L43.7928 40.2231C43.2204 40.8041 42.5548 41.5286 41.7962 42.3967C41.8031 42.5366 41.8299 42.6299 41.8766 42.6765C41.9234 42.7231 42.0001 42.7463 42.1067 42.7461C42.1801 42.746 42.2434 42.7425 42.2967 42.7358C42.35 42.729 42.3834 42.7256 42.3967 42.7256L42.4468 42.7855L42.3676 43.3256C42.2876 43.3258 42.141 43.3227 41.9276 43.3164C41.7143 43.3101 41.5076 43.3072 41.3076 43.3075C41.0809 43.3079 40.8243 43.315 40.5376 43.3289C40.2576 43.3427 40.071 43.3564 39.9777 43.3699L40.0368 42.8198C40.2768 42.7727 40.4333 42.7091 40.5065 42.6289C40.5864 42.5421 40.6295 42.3887 40.6358 42.1687L40.6313 39.2687C40.6311 39.1087 40.6109 39.0021 40.5708 38.9488C40.5307 38.8889 40.4507 38.859 40.3307 38.8592C40.2773 38.8593 40.2274 38.8628 40.1807 38.8695C40.134 38.8763 40.1007 38.8796 40.0807 38.8797L40.0306 38.7898L40.0998 38.2996L41.0998 38.3079C41.2798 38.3076 41.5198 38.3005 41.8198 38.2866C42.1198 38.2727 42.3164 38.2624 42.4097 38.2556L42.3606 38.8257C42.1607 38.8527 42.0341 38.8996 41.9809 38.9663C41.9276 39.0264 41.8945 39.1498 41.8814 39.3365C41.8423 39.9299 41.8167 40.6133 41.8046 41.3866C42.5168 40.652 43.179 39.9242 43.7912 39.2031C43.7843 39.0698 43.7609 38.9798 43.7208 38.9332C43.6807 38.88 43.604 38.8535 43.4907 38.8537C43.4373 38.8537 43.384 38.8572 43.3307 38.8639C43.284 38.8707 43.254 38.8741 43.2407 38.8741L43.1906 38.7842L43.2498 38.2941L44.3598 38.3021C44.5132 38.3018 44.7365 38.2948 45.0298 38.2809C45.3231 38.2671 45.5164 38.2567 45.6097 38.2499L45.5606 38.81C45.3607 38.837 45.2274 38.8772 45.1608 38.9307C45.1009 38.9841 45.0644 39.0875 45.0513 39.2409C44.9928 40.2277 44.9644 41.2177 44.9659 42.211C44.9662 42.411 44.9898 42.5477 45.0365 42.6209C45.0833 42.6942 45.17 42.7307 45.2967 42.7305C45.3634 42.7303 45.4234 42.7269 45.4767 42.7201C45.53 42.7134 45.5667 42.71 45.5867 42.71L45.6368 42.7799ZM51.388 44.4697L50.5881 44.5311L50.4971 43.8913C50.4634 43.658 50.3765 43.4981 50.2364 43.4117C50.1029 43.332 49.8862 43.2923 49.5862 43.2929L47.7562 43.2961C47.4562 43.2966 47.2362 43.337 47.0964 43.4173C46.9632 43.5042 46.8801 43.6643 46.8471 43.8977L46.758 44.4779L45.9581 44.5393L45.9553 42.7493L46.0252 42.6492C46.4249 42.5018 46.7147 42.3446 46.8944 42.1776C47.0808 42.004 47.2105 41.7937 47.2835 41.5469C47.3631 41.2935 47.4524 40.88 47.5515 40.3065L47.6903 39.5062C47.7035 39.4129 47.71 39.3495 47.71 39.3162C47.7097 39.1562 47.6429 39.0496 47.5095 38.9965C47.3827 38.9368 47.1494 38.9105 46.8094 38.9178L46.7592 38.8279L46.8184 38.2978L50.0884 38.292C50.5751 38.2911 50.9784 38.2737 51.2983 38.2398L51.2492 38.8199C51.0493 38.847 50.9127 38.8872 50.8394 38.9407C50.7728 38.9941 50.733 39.0908 50.7199 39.2309C50.6613 40.1443 50.6328 41.1177 50.6344 42.151C50.6347 42.3377 50.6549 42.4643 50.695 42.5309C50.7351 42.5908 50.8185 42.624 50.9451 42.6305L51.3052 42.6398L51.3753 42.7397L51.388 44.4697ZM49.4602 39.4431C49.46 39.2964 49.4365 39.1998 49.3897 39.1532C49.343 39.1066 49.253 39.0835 49.1196 39.0837L48.6596 39.0745L48.4618 40.4449C48.3694 41.0784 48.2568 41.5519 48.124 41.8655C47.9911 42.1724 47.7748 42.3927 47.475 42.5266L47.4851 42.5966L48.8851 42.5941C49.1051 42.5937 49.255 42.5601 49.3349 42.4933C49.4215 42.4198 49.4646 42.2864 49.4643 42.0931L49.4602 39.4431ZM57.7559 42.7584L57.6867 43.2986C57.6067 43.2987 57.4501 43.2956 57.2167 43.2894C56.9834 43.2831 56.7267 43.2803 56.4467 43.2807L55.2567 43.2929L55.3259 42.7327C55.5525 42.7257 55.7058 42.6754 55.7856 42.5819C55.8655 42.4884 55.9052 42.3117 55.9048 42.0517L55.9119 40.2017C55.3395 40.7827 54.674 41.5072 53.9153 42.3752C53.9222 42.5152 53.949 42.6085 53.9957 42.6551C54.0425 42.7017 54.1192 42.7249 54.2258 42.7247C54.2992 42.7245 54.3625 42.7211 54.4158 42.7143C54.4692 42.7076 54.5025 42.7042 54.5158 42.7042L54.5659 42.7641L54.4867 43.3042C54.4067 43.3044 54.2601 43.3013 54.0467 43.295C53.8334 43.2887 53.6267 43.2857 53.4267 43.2861C53.2001 43.2865 52.9434 43.2936 52.6568 43.3074C52.3768 43.3213 52.1901 43.3349 52.0968 43.3484L52.156 42.7983C52.3959 42.7512 52.5525 42.6876 52.6257 42.6075C52.7055 42.5207 52.7486 42.3673 52.7549 42.1473L52.7504 39.2473C52.7502 39.0873 52.73 38.9806 52.6899 38.9274C52.6499 38.8675 52.5698 38.8376 52.4498 38.8378C52.3965 38.8379 52.3465 38.8413 52.2998 38.8481C52.2532 38.8548 52.2198 38.8582 52.1998 38.8583L52.1497 38.7683L52.2189 38.2782L53.2189 38.2864C53.3989 38.2861 53.6389 38.279 53.9389 38.2652C54.2389 38.2513 54.4355 38.241 54.5289 38.2341L54.4798 38.8042C54.2798 38.8312 54.1532 38.8781 54.1 38.9449C54.0467 39.005 54.0136 39.1284 54.0005 39.3151C53.9615 39.9085 53.9359 40.5918 53.9237 41.3652C54.6359 40.6306 55.2981 39.9028 55.9103 39.1817C55.9035 39.0484 55.88 38.9584 55.8399 38.9118C55.7998 38.8586 55.7231 38.832 55.6098 38.8322C55.5565 38.8323 55.5031 38.8357 55.4498 38.8425C55.4032 38.8493 55.3732 38.8526 55.3598 38.8527L55.3097 38.7628L55.3689 38.2726L56.4789 38.2807C56.6323 38.2804 56.8556 38.2733 57.1489 38.2595C57.4422 38.2456 57.6355 38.2353 57.7289 38.2285L57.6797 38.7886C57.4798 38.8156 57.3465 38.8558 57.2799 38.9093C57.22 38.9627 57.1835 39.0661 57.1704 39.2195C57.1119 40.2062 57.0835 41.1963 57.085 42.1896C57.0853 42.3896 57.1089 42.5262 57.1557 42.5995C57.2024 42.6727 57.2892 42.7093 57.4158 42.709C57.4825 42.7089 57.5425 42.7055 57.5958 42.6987C57.6491 42.692 57.6858 42.6886 57.7058 42.6885L57.7559 42.7584ZM63.2833 42.7487L63.2142 43.2888C62.7741 43.2762 62.3608 43.2703 61.9741 43.271L60.7541 43.2831L60.8233 42.723C61.0699 42.7159 61.2332 42.6656 61.313 42.5721C61.3996 42.4787 61.4426 42.3019 61.4422 42.0419L61.4411 41.3419C61.1013 41.4292 60.7747 41.4731 60.4613 41.4736C59.9213 41.4746 59.4911 41.3454 59.1707 41.0859C58.857 40.8198 58.6997 40.4468 58.699 39.9668L58.6977 39.1668C58.6975 39.0401 58.6807 38.9535 58.6473 38.9068C58.6139 38.8536 58.5572 38.827 58.4772 38.8271L58.2772 38.8475L58.2271 38.7576L58.2763 38.2675L59.1764 38.2759C59.383 38.2755 59.803 38.2581 60.4363 38.2237L60.3872 38.7938C60.2005 38.8208 60.0806 38.8643 60.0274 38.9244C59.9808 38.9845 59.9543 39.1079 59.9479 39.2945L59.9387 39.8046C59.9392 40.0979 60.0095 40.3211 60.1498 40.4742C60.2967 40.6273 60.5235 40.7169 60.8302 40.743L61.44 40.6219L61.4378 39.2319C61.4376 39.0719 61.4174 38.9653 61.3774 38.912C61.3439 38.8521 61.2739 38.8222 61.1672 38.8224L60.9272 38.8428L60.8671 38.7529L60.9363 38.2628L62.0064 38.2709C61.993 38.2709 62.3263 38.257 63.0063 38.2291L63.2563 38.2187L63.2071 38.7788C63.0072 38.8058 62.8773 38.846 62.8173 38.8995C62.7574 38.9529 62.7209 39.0563 62.7078 39.2097C62.6751 39.6297 62.6492 40.1198 62.6301 40.6798C62.611 41.2398 62.6017 41.7199 62.6023 42.1199C62.6027 42.3465 62.6263 42.4998 62.6731 42.5797C62.7265 42.6596 62.8199 42.6995 62.9532 42.6992C63.0532 42.6991 63.1499 42.6922 63.2432 42.6787L63.2833 42.7487ZM64.0309 42.7673C64.2575 42.7403 64.4108 42.68 64.4906 42.5865C64.5705 42.4864 64.6102 42.3196 64.6099 42.0863L64.6154 39.2363C64.6152 39.0696 64.5983 38.9597 64.5649 38.9064C64.5315 38.8464 64.4615 38.8166 64.3548 38.8168L64.1148 38.8272L64.0547 38.7473L64.1239 38.2372C64.2306 38.237 64.4339 38.2399 64.7339 38.2461C65.0406 38.2522 65.3672 38.255 65.7139 38.2544C66.8939 38.2523 67.7339 38.2208 68.2338 38.1599L68.3039 38.2498C68.284 38.3365 68.251 38.5265 68.2048 38.8199C68.1652 39.1067 68.1357 39.4034 68.1162 39.7101L67.2863 39.7616C67.2862 39.7416 67.2895 39.7016 67.2961 39.6416C67.3026 39.5749 67.3059 39.5115 67.3058 39.4515C67.3055 39.3049 67.2821 39.2016 67.2353 39.1417C67.1885 39.0817 67.0985 39.0419 66.9651 39.0221C66.8317 38.9957 66.6117 38.9828 66.305 38.9833C66.125 38.9836 66.0117 38.9972 65.9651 39.0239C65.9252 39.0506 65.9019 39.1174 65.8954 39.224L65.8472 40.3541L66.5872 40.3528C66.7072 40.3526 66.8772 40.3456 67.0971 40.3319C67.3171 40.3115 67.4638 40.2979 67.5371 40.2911L67.6172 40.381L67.4983 41.1012C67.425 41.1013 67.285 41.0982 67.0783 41.0919C66.8783 41.0856 66.665 41.0827 66.4383 41.0831C66.2583 41.0834 66.0517 41.1004 65.8184 41.1342C65.8056 41.4542 65.7994 41.7809 65.7999 42.1142C65.8001 42.2609 65.8103 42.3642 65.8304 42.4242C65.8505 42.4841 65.8939 42.5274 65.9606 42.5539C66.0273 42.5738 66.1406 42.5836 66.3006 42.5833C66.634 42.5827 66.8773 42.5623 67.0305 42.522C67.1838 42.4751 67.2937 42.3949 67.3602 42.2814C67.4267 42.1613 67.4797 41.9679 67.5193 41.7012L68.2792 41.6398L68.3593 41.7297C68.3394 41.8097 68.3031 41.9964 68.2502 42.2899C68.204 42.5833 68.1645 42.8934 68.1316 43.2201L68.0418 43.3102C67.8751 43.3039 67.5117 43.2945 66.9517 43.2822C66.3984 43.2698 65.8984 43.264 65.4517 43.2648C65.1384 43.2654 64.835 43.2759 64.5417 43.2964C64.2485 43.3236 64.0585 43.3406 63.9718 43.3474L64.0309 42.7673ZM71.3716 43.3444C70.6049 43.3457 70.0046 43.1301 69.5706 42.6975C69.1366 42.2583 68.919 41.652 68.9178 40.8787C68.9169 40.3254 69.0328 39.8452 69.2655 39.4381C69.4982 39.0243 69.8311 38.7071 70.264 38.4863C70.7037 38.2655 71.2169 38.1546 71.8035 38.1536C72.0102 38.1532 72.2336 38.1695 72.4736 38.2024C72.7136 38.2286 72.917 38.2583 73.0837 38.2913C73.2571 38.3177 73.3672 38.3375 73.4138 38.3507L73.464 38.4606C73.4574 38.494 73.4375 38.5807 73.4044 38.7208C73.378 38.8541 73.3482 39.0342 73.3153 39.2609C73.2823 39.4876 73.2593 39.7277 73.2464 39.981L72.3465 40.0426C72.3464 40.0226 72.3464 39.976 72.3462 39.9026C72.3528 39.8226 72.356 39.7293 72.3558 39.6226C72.3555 39.4026 72.2886 39.2427 72.1551 39.143C72.0216 39.0432 71.8115 38.9936 71.5248 38.9941C71.1182 38.9948 70.815 39.1287 70.6155 39.3957C70.4159 39.656 70.3165 40.0595 70.3173 40.6062C70.3183 41.2195 70.429 41.6927 70.6495 42.0256C70.8701 42.3519 71.1803 42.5147 71.5803 42.514C71.8603 42.5135 72.0768 42.4331 72.2299 42.2728C72.383 42.1126 72.4893 41.849 72.5487 41.4823L73.4486 41.4207C73.4354 41.514 73.4091 41.7207 73.3696 42.0408C73.3301 42.3542 73.3072 42.6509 73.301 42.9309L73.2111 43.0311C73.1711 43.0445 73.0679 43.078 72.9013 43.1316C72.7347 43.1786 72.5147 43.2257 72.2415 43.2728C71.9682 43.32 71.6783 43.3438 71.3716 43.3444ZM79.4449 42.8201L79.3856 43.2702L78.3758 43.362C78.1891 43.3623 78.0224 43.3059 77.8755 43.1929C77.7353 43.0798 77.595 42.8967 77.4547 42.6436L76.5922 41.0751L76.0622 41.0761L76.0339 42.1661C76.0276 42.3728 76.0444 42.5128 76.0846 42.586C76.1313 42.6593 76.2181 42.6958 76.3447 42.6956C76.5314 42.6952 76.6314 42.6884 76.6447 42.675L76.7048 42.7349L76.6256 43.2651L75.4056 43.2472C74.9789 43.248 74.5856 43.2587 74.2256 43.2793L74.3048 42.7292C74.5381 42.6954 74.6913 42.6385 74.7645 42.5584C74.8377 42.4782 74.8742 42.3315 74.8738 42.1182L74.8693 39.2082C74.8757 39.0481 74.8556 38.9415 74.8088 38.8883C74.7687 38.8283 74.692 38.7985 74.5787 38.7987L74.3387 38.8091L74.2886 38.7292L74.3478 38.2291L75.4878 38.2471L76.0178 38.2261C76.4178 38.2054 76.6344 38.195 76.6677 38.195L76.6286 38.755C76.422 38.8021 76.2854 38.8557 76.2189 38.9158C76.1523 38.9692 76.1158 39.066 76.1093 39.206L76.081 40.286L76.7311 40.3249L77.3794 39.2337C77.6187 38.8266 77.855 38.5495 78.0881 38.4025C78.3278 38.2487 78.6577 38.1681 79.0777 38.1607C79.2781 38.447 79.3854 38.8035 79.3994 39.2302L79.2795 39.3504C79.1395 39.3239 79.0028 39.3109 78.8695 39.3111C78.6695 39.3114 78.5029 39.3584 78.3697 39.452C78.2432 39.5389 78.1134 39.6891 77.9804 39.9027L77.5913 40.5133L78.4838 42.0618C78.7444 42.508 79.0448 42.7308 79.3848 42.7302L79.4449 42.8201ZM85.6172 42.7092L85.548 43.2493C85.468 43.2494 85.3114 43.2464 85.078 43.2401C84.8447 43.2339 84.588 43.231 84.308 43.2315L83.118 43.2436L83.1871 42.6835C83.4138 42.6764 83.5671 42.6261 83.6469 42.5326C83.7268 42.4392 83.7665 42.2624 83.7661 42.0024L83.7732 40.1524C83.2008 40.7334 82.5352 41.4579 81.7766 42.326C81.7835 42.4659 81.8103 42.5592 81.857 42.6058C81.9038 42.6524 81.9805 42.6756 82.0871 42.6754C82.1605 42.6753 82.2238 42.6718 82.2771 42.6651C82.3304 42.6583 82.3638 42.6549 82.3771 42.6549L82.4272 42.7148L82.348 43.2549C82.268 43.2551 82.1214 43.252 81.908 43.2457C81.6947 43.2394 81.488 43.2365 81.288 43.2368C81.0613 43.2372 80.8047 43.2443 80.518 43.2582C80.2381 43.272 80.0514 43.2857 79.9581 43.2992L80.0172 42.7491C80.2572 42.702 80.4137 42.6384 80.4869 42.5582C80.5668 42.4714 80.6099 42.318 80.6162 42.098L80.6117 39.198C80.6115 39.038 80.5913 38.9314 80.5512 38.8781C80.5111 38.8182 80.4311 38.7883 80.3111 38.7885C80.2578 38.7886 80.2078 38.7921 80.1611 38.7988C80.1144 38.8056 80.0811 38.8089 80.0611 38.809L80.011 38.7191L80.0802 38.2289L81.0802 38.2372C81.2602 38.2369 81.5002 38.2298 81.8002 38.2159C82.1002 38.202 82.2968 38.1917 82.3902 38.1849L82.341 38.7549C82.1411 38.782 82.0145 38.8289 81.9613 38.8956C81.908 38.9557 81.8749 39.0791 81.8618 39.2658C81.8228 39.8592 81.7972 40.5426 81.785 41.3159C82.4972 40.5813 83.1594 39.8535 83.7716 39.1324C83.7648 38.9991 83.7413 38.9091 83.7012 38.8625C83.6611 38.8093 83.5844 38.7827 83.4711 38.7829C83.4178 38.783 83.3644 38.7865 83.3111 38.7932C83.2644 38.8 83.2344 38.8034 83.2211 38.8034L83.171 38.7135L83.2302 38.2234L84.3402 38.2314C84.4936 38.2311 84.7169 38.2241 85.0102 38.2102C85.3035 38.1964 85.4968 38.186 85.5901 38.1792L85.541 38.7393C85.3411 38.7663 85.2078 38.8065 85.1412 38.86C85.0813 38.9134 85.0448 39.0168 85.0317 39.1702C84.9732 40.157 84.9448 41.147 84.9463 42.1403C84.9466 42.3403 84.9702 42.477 85.0169 42.5502C85.0637 42.6235 85.1504 42.66 85.2771 42.6598C85.3438 42.6596 85.4038 42.6562 85.4571 42.6494C85.5104 42.6427 85.5471 42.6393 85.5671 42.6392L85.6172 42.7092ZM89.0865 37.493C88.6398 37.4938 88.2763 37.3911 87.996 37.1849C87.7224 36.9788 87.5452 36.6824 87.4646 36.2959L88.2842 36.0344L88.4143 36.0842C88.4415 36.4042 88.5118 36.634 88.6254 36.7738C88.7389 36.9136 88.909 36.9833 89.1357 36.9829C89.3557 36.9825 89.5189 36.9156 89.6254 36.7821C89.7385 36.6419 89.8082 36.4084 89.8343 36.0817L89.9642 36.0315L90.7846 36.29C90.7052 36.6702 90.5157 36.9672 90.216 37.181C89.923 37.3882 89.5465 37.4922 89.0865 37.493ZM91.9746 42.6979L91.9054 43.238C91.8254 43.2382 91.6688 43.2351 91.4354 43.2289C91.2021 43.2226 90.9454 43.2197 90.6654 43.2202L89.4754 43.2323L89.5446 42.6722C89.7712 42.6651 89.9245 42.6149 90.0043 42.5214C90.0842 42.4279 90.1239 42.2512 90.1235 41.9912L90.1306 40.1412C89.5582 40.7222 88.8927 41.4467 88.134 42.3147C88.1409 42.4547 88.1677 42.548 88.2144 42.5946C88.2612 42.6412 88.3379 42.6643 88.4445 42.6642C88.5179 42.664 88.5812 42.6606 88.6345 42.6538C88.6879 42.6471 88.7212 42.6437 88.7345 42.6436L88.7846 42.7036L88.7054 43.2437C88.6254 43.2438 88.4788 43.2408 88.2654 43.2345C88.0521 43.2282 87.8454 43.2252 87.6454 43.2256C87.4187 43.226 87.1621 43.2331 86.8754 43.2469C86.5955 43.2608 86.4088 43.2744 86.3155 43.2879L86.3747 42.7378C86.6146 42.6907 86.7712 42.6271 86.8444 42.547C86.9242 42.4602 86.9673 42.3068 86.9736 42.0868L86.9691 39.1868C86.9689 39.0268 86.9487 38.9201 86.9086 38.8669C86.8685 38.8069 86.7885 38.7771 86.6685 38.7773C86.6152 38.7774 86.5652 38.7808 86.5185 38.7876C86.4719 38.7943 86.4385 38.7977 86.4185 38.7977L86.3684 38.7078L86.4376 38.2177L87.4376 38.2259C87.6176 38.2256 87.8576 38.2185 88.1576 38.2047C88.4576 38.1908 88.6542 38.1804 88.7476 38.1736L88.6985 38.7437C88.4985 38.7707 88.3719 38.8176 88.3187 38.8844C88.2654 38.9445 88.2323 39.0679 88.2192 39.2546C88.1802 39.848 88.1546 40.5313 88.1424 41.3047C88.8546 40.5701 89.5168 39.8423 90.129 39.1212C90.1222 38.9879 90.0987 38.8979 90.0586 38.8513C90.0185 38.798 89.9418 38.7715 89.8285 38.7717C89.7752 38.7718 89.7218 38.7752 89.6685 38.782C89.6219 38.7887 89.5919 38.7921 89.5785 38.7921L89.5284 38.7022L89.5876 38.2121L90.6976 38.2202C90.851 38.2199 91.0743 38.2128 91.3676 38.199C91.6609 38.1851 91.8542 38.1748 91.9476 38.168L91.8984 38.728C91.6985 38.7551 91.5652 38.7953 91.4986 38.8488C91.4387 38.9022 91.4022 39.0056 91.3891 39.1589C91.3306 40.1457 91.3022 41.1358 91.3037 42.1291C91.304 42.3291 91.3276 42.4657 91.3744 42.539C91.4211 42.6122 91.5079 42.6487 91.6345 42.6485C91.7012 42.6484 91.7612 42.645 91.8145 42.6382C91.8678 42.6314 91.9045 42.628 91.9245 42.628L91.9746 42.6979ZM44.4312 52.882L44.3719 53.3321L43.3621 53.4239C43.1754 53.4242 43.0086 53.3679 42.8618 53.2548C42.7216 53.1417 42.5813 52.9586 42.441 52.7055L41.5785 51.1371L41.0485 51.138L41.0202 52.228C41.0139 52.4347 41.0307 52.5747 41.0709 52.648C41.1176 52.7212 41.2044 52.7577 41.331 52.7575C41.5177 52.7572 41.6177 52.7503 41.631 52.737L41.6911 52.7969L41.6119 53.327L40.3919 53.3092C39.9652 53.3099 39.5719 53.3206 39.2119 53.3412L39.2911 52.7911C39.5244 52.7574 39.6776 52.7004 39.7508 52.6203C39.824 52.5402 39.8605 52.3934 39.8601 52.1801L39.8556 49.2701C39.862 49.1101 39.8419 49.0035 39.7951 48.9502C39.755 48.8903 39.6783 48.8604 39.565 48.8606L39.325 48.871L39.2749 48.7911L39.3341 48.291L40.4741 48.309L41.0041 48.2881C41.4041 48.2674 41.6207 48.257 41.654 48.2569L41.6149 48.817C41.4083 48.864 41.2717 48.9176 41.2052 48.9777C41.1386 49.0312 41.1021 49.1279 41.0956 49.2679L41.0673 50.348L41.7173 50.3868L42.3657 49.2957C42.605 48.8886 42.8413 48.6115 43.0744 48.4644C43.3141 48.3106 43.644 48.2301 44.064 48.2227C44.2644 48.509 44.3717 48.8654 44.3856 49.2921L44.2658 49.4123C44.1258 49.3859 43.9891 49.3728 43.8558 49.373C43.6558 49.3734 43.4892 49.4203 43.356 49.5139C43.2295 49.6008 43.0997 49.751 42.9667 49.9646L42.5776 50.5753L43.47 52.1237C43.7307 52.5699 44.0311 52.7927 44.3711 52.7921L44.4312 52.882ZM47.3164 53.2969L47.3556 52.7768C47.5489 52.7565 47.6855 52.7396 47.7655 52.7261C47.8455 52.706 47.8988 52.6792 47.9254 52.6458C47.9587 52.6124 47.9753 52.5624 47.9752 52.4957C47.975 52.4224 47.9616 52.3458 47.9348 52.2658L47.794 51.7461C47.654 51.7396 47.4106 51.7367 47.064 51.7374C46.9107 51.7376 46.6573 51.7547 46.3041 51.7887L46.1249 52.309C46.0984 52.4091 46.0851 52.4824 46.0852 52.5291C46.0853 52.6158 46.1088 52.6757 46.1555 52.709C46.2089 52.7355 46.3056 52.7487 46.4456 52.7484L46.7556 52.7479L46.8057 52.8178L46.7465 53.3379C46.6665 53.3314 46.4964 53.3217 46.2364 53.3088C45.9831 53.3026 45.7464 53.2997 45.5264 53.3001C45.2931 53.3005 45.0797 53.3042 44.8864 53.3112C44.6998 53.3182 44.5764 53.3218 44.5164 53.3219L44.5756 52.7618C44.6955 52.7415 44.7921 52.6947 44.8654 52.6212C44.9452 52.5411 45.0184 52.4243 45.0848 52.2709L46.5187 48.3283L47.9885 48.1957L48.0886 48.2555C48.169 48.5554 48.34 49.1684 48.6014 50.0946C48.8629 51.0208 49.0773 51.7305 49.2447 52.2235C49.2984 52.4034 49.3686 52.5333 49.4553 52.6131C49.5488 52.693 49.6822 52.7394 49.8556 52.7524L49.8957 52.8123L49.8364 53.3125C49.7631 53.3126 49.6231 53.3095 49.4164 53.3032C49.2164 53.2969 49.0097 53.2939 48.7964 53.2943C48.4964 53.2948 48.2031 53.302 47.9164 53.3158C47.6298 53.3364 47.4465 53.35 47.3665 53.3568L47.3164 53.2969ZM47.0629 51.0374C47.2829 51.037 47.4762 51.0266 47.6428 51.0063L47.1903 49.3871L47.0703 49.3873L46.5229 51.0383L47.0629 51.0374ZM52.836 53.3671C52.7026 53.3674 52.4826 53.3544 52.1759 53.3283C51.8692 53.3022 51.6392 53.2893 51.4859 53.2895C51.1992 53.29 50.8026 53.3141 50.296 53.3616L50.3551 52.7815C50.5817 52.7411 50.7349 52.6809 50.8148 52.6007C50.9013 52.5139 50.9444 52.3738 50.9441 52.1805L50.9395 49.2205C50.9393 49.0605 50.9225 48.9572 50.889 48.9106C50.8623 48.864 50.7989 48.8407 50.6989 48.8409L50.459 48.8613L50.3888 48.7815L50.4581 48.2713C50.7381 48.2709 50.9614 48.2738 51.1281 48.2802L52.0181 48.2886C53.2781 48.2864 54.1614 48.2515 54.6679 48.1839L54.7381 48.2838C54.6588 48.7773 54.6063 49.304 54.5805 49.8641L53.7606 49.9155L53.78 49.4955C53.7864 49.3488 53.7662 49.2455 53.7195 49.1856C53.6794 49.119 53.5993 49.0758 53.4793 49.056C53.3592 49.0295 53.1559 49.0166 52.8692 49.0171C52.6492 49.0175 52.4959 49.0244 52.4092 49.0379C52.3226 49.0447 52.266 49.0681 52.2394 49.1082C52.2127 49.1416 52.1995 49.2016 52.1996 49.2883L52.1513 50.3784L52.9413 50.377C53.5547 50.3759 54.0348 50.495 54.3819 50.7344C54.7289 50.9738 54.9028 51.3168 54.9035 51.7635C54.904 52.0768 54.8177 52.357 54.6448 52.6039C54.4718 52.8443 54.2288 53.0314 53.9157 53.1652C53.6025 53.2991 53.2426 53.3664 52.836 53.3671ZM52.7748 52.6073C53.0348 52.6068 53.2347 52.5431 53.3745 52.4162C53.521 52.2893 53.594 52.1091 53.5937 51.8758C53.5933 51.6358 53.5263 51.4559 53.3928 51.3362C53.2593 51.2164 53.0525 51.1401 52.7725 51.1073L52.1225 51.1484L52.1041 52.1784C52.0977 52.3251 52.1479 52.435 52.2546 52.5082C52.3681 52.5746 52.5415 52.6077 52.7748 52.6073ZM61.3652 52.7521L61.296 53.2922C61.216 53.2923 61.0594 53.2893 60.826 53.283C60.5927 53.2768 60.336 53.2739 60.056 53.2744L58.866 53.2865L58.9351 52.7264C59.1618 52.7193 59.3151 52.669 59.3949 52.5755C59.4748 52.4821 59.5145 52.3053 59.5141 52.0453L59.5212 50.1953C58.9488 50.7763 58.2832 51.5008 57.5246 52.3689C57.5315 52.5088 57.5583 52.6021 57.605 52.6487C57.6518 52.6953 57.7285 52.7185 57.8351 52.7183C57.9085 52.7182 57.9718 52.7147 58.0251 52.708C58.0784 52.7012 58.1118 52.6978 58.1251 52.6978L58.1752 52.7577L58.096 53.2978C58.016 53.298 57.8694 53.2949 57.656 53.2886C57.4427 53.2823 57.236 53.2794 57.036 53.2797C56.8093 53.2801 56.5527 53.2872 56.266 53.3011C55.9861 53.3149 55.7994 53.3286 55.7061 53.3421L55.7652 52.792C56.0052 52.7449 56.1617 52.6813 56.2349 52.6011C56.3148 52.5143 56.3579 52.3609 56.3642 52.1409L56.3597 49.2409C56.3595 49.0809 56.3393 48.9743 56.2992 48.921C56.2591 48.8611 56.1791 48.8312 56.0591 48.8314C56.0058 48.8315 55.9558 48.835 55.9091 48.8417C55.8624 48.8485 55.8291 48.8518 55.8091 48.8519L55.759 48.762L55.8282 48.2718L56.8282 48.2801C57.0082 48.2798 57.2482 48.2727 57.5482 48.2588C57.8482 48.2449 58.0448 48.2346 58.1382 48.2278L58.089 48.7979C57.8891 48.8249 57.7625 48.8718 57.7093 48.9385C57.656 48.9986 57.6229 49.122 57.6098 49.3087C57.5708 49.9021 57.5451 50.5855 57.533 51.3588C58.2452 50.6242 58.9074 49.8964 59.5196 49.1753C59.5128 49.042 59.4893 48.952 59.4492 48.9054C59.4091 48.8522 59.3324 48.8257 59.2191 48.8259C59.1658 48.8259 59.1124 48.8294 59.0591 48.8361C59.0124 48.8429 58.9824 48.8463 58.9691 48.8463L58.919 48.7564L58.9782 48.2663L60.0882 48.2743C60.2416 48.274 60.4649 48.267 60.7582 48.2531C61.0515 48.2393 61.2448 48.2289 61.3381 48.2221L61.289 48.7822C61.0891 48.8092 60.9558 48.8494 60.8892 48.9029C60.8293 48.9563 60.7928 49.0597 60.7797 49.2131C60.7212 50.1999 60.6928 51.1899 60.6943 52.1832C60.6946 52.3832 60.7182 52.5199 60.7649 52.5931C60.8117 52.6664 60.8984 52.7029 61.0251 52.7027C61.0918 52.7025 61.1518 52.6991 61.2051 52.6923C61.2584 52.6856 61.2951 52.6822 61.3151 52.6822L61.3652 52.7521ZM62.1227 52.7807C62.3559 52.7403 62.5092 52.6767 62.5824 52.5899C62.6622 52.5031 62.702 52.3497 62.7016 52.1297L62.7071 49.2197C62.7069 49.053 62.6867 48.9464 62.6466 48.8998C62.6065 48.8465 62.5265 48.82 62.4065 48.8202L62.1665 48.8206L62.1164 48.7407L62.1756 48.2506L63.1756 48.2589C63.3623 48.2585 63.6056 48.2514 63.9056 48.2376C64.2056 48.2237 64.4056 48.2133 64.5055 48.2065L64.4564 48.7766C64.2565 48.8036 64.1299 48.8505 64.0767 48.9173C64.0234 48.9774 63.9903 49.1041 63.9772 49.2974L63.9289 50.3575L64.9189 50.3758C65.2056 50.3753 65.5089 50.3581 65.8288 50.3242L65.8371 49.2141C65.8369 49.0542 65.8167 48.9475 65.7766 48.8943C65.7365 48.841 65.6565 48.8145 65.5365 48.8147L65.2865 48.8151L65.2364 48.7352L65.3056 48.2451C65.3056 48.2518 65.6723 48.2544 66.4056 48.2531C66.559 48.2529 66.7823 48.2458 67.0756 48.232C67.3756 48.2181 67.5722 48.2077 67.6655 48.2009L67.6164 48.761C67.4165 48.788 67.2832 48.8283 67.2166 48.8817C67.1567 48.9351 67.1235 49.0385 67.1171 49.1919C67.091 49.5919 67.0685 50.0786 67.0494 50.652C67.0302 51.2254 67.021 51.7354 67.0217 52.1821C67.022 52.3821 67.0456 52.5187 67.0924 52.5919C67.1391 52.6652 67.2292 52.7017 67.3625 52.7015C67.4292 52.7013 67.4892 52.6979 67.5425 52.6911C67.5958 52.6844 67.6292 52.681 67.6425 52.681L67.7026 52.7409L67.6234 53.281C67.5434 53.2811 67.3868 53.2781 67.1534 53.2718C66.9201 53.2656 66.6634 53.2627 66.3834 53.2632L65.1834 53.2753L65.2526 52.7252C65.4792 52.7181 65.6325 52.6679 65.7123 52.5744C65.7922 52.4809 65.8319 52.3008 65.8315 52.0342L65.8301 51.1042L65.02 51.0956C64.9267 51.0958 64.7401 51.1061 64.4601 51.1266C64.1868 51.1471 64.0035 51.1607 63.9101 51.1676L63.8917 52.1876C63.8921 52.4009 63.9123 52.5442 63.9524 52.6175C63.9925 52.6841 64.0759 52.7173 64.2026 52.717C64.2759 52.7169 64.3359 52.7135 64.3825 52.7067C64.4359 52.7 64.4692 52.6966 64.4825 52.6966L64.5326 52.7565L64.4634 53.2866C64.3834 53.2867 64.2334 53.2837 64.0134 53.2774C63.8001 53.2711 63.5901 53.2681 63.3834 53.2685C63.1567 53.2689 62.9034 53.276 62.6234 53.2898C62.3435 53.3037 62.1568 53.3173 62.0635 53.3308L62.1227 52.7807ZM68.4508 52.7595C68.6774 52.7325 68.8306 52.6722 68.9105 52.5787C68.9903 52.4786 69.0301 52.3118 69.0297 52.0785L69.0353 49.2285C69.035 49.0618 69.0182 48.9519 68.9848 48.8986C68.9513 48.8386 68.8813 48.8088 68.7746 48.809L68.5346 48.8194L68.4745 48.7395L68.5437 48.2294C68.6504 48.2292 68.8537 48.2321 69.1537 48.2383C69.4604 48.2444 69.7871 48.2472 70.1337 48.2465C71.3137 48.2445 72.1537 48.213 72.6536 48.1521L72.7237 48.242C72.7039 48.3287 72.6708 48.5187 72.6246 48.8121C72.5851 49.0989 72.5555 49.3956 72.536 49.7023L71.7061 49.7538C71.7061 49.7338 71.7093 49.6938 71.7159 49.6338C71.7225 49.5671 71.7257 49.5037 71.7256 49.4437C71.7254 49.2971 71.7019 49.1938 71.6551 49.1339C71.6084 49.0739 71.5183 49.0341 71.3849 49.0143C71.2516 48.9879 71.0315 48.975 70.7249 48.9755C70.5449 48.9758 70.4316 48.9894 70.3849 49.0161C70.345 49.0428 70.3218 49.1096 70.3153 49.2162L70.267 50.3463L71.007 50.345C71.127 50.3448 71.297 50.3378 71.517 50.3241C71.7369 50.3037 71.8836 50.2901 71.9569 50.2833L72.0371 50.3732L71.9182 51.0934C71.8448 51.0935 71.7048 51.0904 71.4982 51.0841C71.2981 51.0778 71.0848 51.0749 70.8581 51.0753C70.6781 51.0756 70.4715 51.0926 70.2382 51.1264C70.2254 51.4464 70.2192 51.7731 70.2197 52.1064C70.22 52.2531 70.2301 52.3564 70.2502 52.4164C70.2703 52.4763 70.3137 52.5196 70.3804 52.5461C70.4471 52.566 70.5605 52.5758 70.7205 52.5755C71.0538 52.5749 71.2971 52.5545 71.4504 52.5142C71.6036 52.4673 71.7135 52.3871 71.78 52.2736C71.8465 52.1535 71.8995 51.9601 71.9391 51.6934L72.699 51.632L72.7791 51.7219C72.7593 51.8019 72.7229 51.9886 72.67 52.2821C72.6238 52.5755 72.5843 52.8856 72.5515 53.2123L72.4616 53.3024C72.2949 53.2961 71.9316 53.2867 71.3716 53.2744C70.8182 53.262 70.3182 53.2562 69.8715 53.257C69.5582 53.2576 69.2549 53.2681 68.9616 53.2886C68.6683 53.3158 68.4783 53.3328 68.3917 53.3396L68.4508 52.7595ZM74.1679 52.7294C74.4212 52.709 74.6045 52.6787 74.7178 52.6385C74.831 52.5916 74.9042 52.5215 74.9374 52.4281C74.9773 52.328 74.997 52.1713 74.9967 51.958L74.992 48.938C74.7254 48.9451 74.5321 48.9721 74.4121 49.019C74.2989 49.0659 74.2157 49.156 74.1626 49.2894C74.1094 49.4229 74.0631 49.6496 74.0236 49.9697L73.2637 50.021C73.2702 49.9077 73.2831 49.6676 73.3026 49.3009C73.3287 48.9276 73.3448 48.5775 73.3509 48.2509L73.4508 48.1507L74.3009 48.2392L76.8809 48.2346L77.7508 48.1431L77.8509 48.2429C77.8581 48.5829 77.8687 48.9295 77.8826 49.2828C77.9031 49.6361 77.9168 49.8628 77.9236 49.9628L77.1637 50.0141C77.1231 49.6675 77.0761 49.4243 77.0226 49.2844C76.9757 49.1445 76.8989 49.0546 76.7921 49.0148C76.6854 48.9683 76.5054 48.9419 76.252 48.9357C76.1999 49.6958 76.1749 50.7659 76.177 52.1459C76.1773 52.3392 76.2108 52.4758 76.2776 52.5557C76.3444 52.6356 76.4612 52.6754 76.6278 52.6751C76.7345 52.6749 76.8278 52.6714 76.9078 52.6646C76.9878 52.6578 77.0378 52.6543 77.0578 52.6543L77.0879 52.6943L77.0188 53.2844C76.9054 53.2779 76.6987 53.2683 76.3987 53.2555C76.0987 53.2493 75.812 53.2465 75.5387 53.247C75.3454 53.2473 75.0854 53.2545 74.7587 53.2684C74.4321 53.289 74.2155 53.3027 74.1088 53.3095L74.1679 52.7294ZM35.1619 63.4184C34.9353 63.4188 34.6786 63.4026 34.3918 63.3698C34.3252 63.3632 34.2052 63.3534 34.0318 63.3404C33.8651 63.3274 33.7151 63.321 33.5818 63.3212C33.2751 63.3218 32.8118 63.3559 32.1919 63.4237L32.2609 62.7635C32.5475 62.7097 32.7407 62.626 32.8405 62.5125C32.9403 62.399 32.9901 62.2156 32.9897 61.9623L32.9936 58.0422C32.9932 57.8356 32.973 57.7023 32.9329 57.6424C32.8928 57.5758 32.8061 57.5426 32.6728 57.5428L32.3728 57.5633L32.3127 57.4734L32.3818 56.8733C32.4951 56.8731 32.5851 56.8763 32.6518 56.8828C33.2518 56.8951 33.7618 56.9009 34.1818 56.9001C35.0085 56.8987 35.6651 56.8909 36.1518 56.8767C36.6384 56.8558 37.035 56.8218 37.3416 56.7746L37.4218 56.8844C37.3161 57.4979 37.2471 58.1614 37.2149 58.8748L36.325 58.9364L36.3441 58.3563C36.3504 58.1563 36.3269 58.013 36.2734 57.9264C36.2266 57.8399 36.1265 57.7834 35.9731 57.757C35.8198 57.7306 35.5597 57.7177 35.1931 57.7184C34.9264 57.7188 34.7397 57.7258 34.6331 57.7393C34.5265 57.7529 34.4565 57.783 34.4232 57.8297C34.3966 57.8764 34.3801 57.9598 34.3736 58.0798L34.3161 59.6399L35.2861 59.6382C36.0127 59.6369 36.583 59.7926 36.9968 60.1052C37.4173 60.4111 37.6279 60.8441 37.6288 61.4041C37.6294 61.7907 37.5233 62.1376 37.3104 62.4446C37.1042 62.7517 36.8113 62.9922 36.4315 63.1662C36.0585 63.3335 35.6353 63.4176 35.1619 63.4184ZM35.1406 62.5785C35.474 62.5779 35.7305 62.4907 35.9102 62.3171C36.0966 62.1368 36.1895 61.8833 36.189 61.5566C36.1885 61.2166 36.1014 60.9601 35.9278 60.7871C35.7542 60.6074 35.4874 60.4945 35.1273 60.4485L34.2874 60.51L34.2597 61.99C34.26 62.1967 34.3303 62.3466 34.4704 62.4396C34.6105 62.5327 34.834 62.579 35.1406 62.5785ZM39.3405 62.811C39.5605 62.784 39.7238 62.7504 39.8304 62.7102C39.937 62.6633 40.0069 62.5965 40.0401 62.5098C40.0799 62.4164 40.0997 62.283 40.0994 62.1097L40.0991 61.8997C40.0989 61.773 40.0821 61.653 40.0485 61.5398C40.015 61.4265 39.9548 61.2899 39.8679 61.1301L39.0356 59.6316C38.9152 59.4051 38.7916 59.2387 38.6648 59.1322C38.538 59.0258 38.3578 58.9428 38.1244 58.8832L38.0944 58.8432L38.1735 58.2931C38.2602 58.2929 38.4135 58.296 38.6335 58.3023C38.8535 58.3086 39.0669 58.3115 39.2735 58.3111C39.4469 58.3108 39.6868 58.3037 39.9935 58.2899C40.3068 58.2693 40.5134 58.2556 40.6134 58.2488L40.6636 58.3287L40.6143 58.8188C40.441 58.8257 40.321 58.846 40.2544 58.8794C40.1878 58.9129 40.1545 58.9696 40.1547 59.0496C40.1548 59.1096 40.225 59.2895 40.3655 59.5892C40.506 59.889 40.5896 60.0688 40.6164 60.1288L40.807 60.5284L40.887 60.5283L41.4751 59.3472C41.5616 59.1938 41.6047 59.0737 41.6046 58.987C41.6045 58.9337 41.5711 58.8937 41.5044 58.8672C41.4444 58.8406 41.3443 58.8241 41.2043 58.8177L41.1743 58.7778L41.2335 58.2777L41.7035 58.2868C41.9968 58.2997 42.2202 58.3059 42.3735 58.3057C42.5735 58.3053 42.7535 58.3017 42.9135 58.2947C43.0802 58.2877 43.1901 58.2809 43.2435 58.2741L43.2736 58.3341L43.2144 58.8542C43.0012 58.9279 42.8247 59.0382 42.6849 59.1851C42.5451 59.332 42.3921 59.5523 42.2259 59.8459L41.4481 61.2473C41.3816 61.3741 41.3418 61.5008 41.3287 61.6275C41.3155 61.7475 41.3059 61.9509 41.2996 62.2376C41.2999 62.4242 41.3268 62.5542 41.3802 62.6274C41.4403 62.7006 41.5471 62.7371 41.7004 62.7369C41.7937 62.7367 41.8771 62.7332 41.9504 62.7264C42.0304 62.7196 42.0837 62.7162 42.1104 62.7161L42.1404 62.7561L42.0614 63.3462C41.9547 63.3397 41.758 63.3301 41.4713 63.3173C41.1846 63.3111 40.9046 63.3083 40.6313 63.3087C40.4313 63.3091 40.178 63.3195 39.8713 63.3401C39.5714 63.3673 39.3747 63.3843 39.2814 63.3911L39.3405 62.811ZM43.7453 62.7932C43.9586 62.7595 44.1019 62.6959 44.175 62.6025C44.2549 62.509 44.2947 62.3556 44.2943 62.1423L44.2999 59.2723C44.2996 59.1056 44.2794 58.9956 44.2394 58.9424C44.2059 58.8824 44.1425 58.8525 44.0492 58.8527L43.7592 58.8632L43.6991 58.7933L43.7783 58.2832L44.8383 58.2913C45.0583 58.2909 45.3017 58.2871 45.5683 58.28C45.8416 58.2662 46.0316 58.2559 46.1383 58.249C46.8783 58.2477 47.4018 58.3968 47.709 58.6962C48.0228 58.989 48.18 59.3487 48.1807 59.7754C48.1811 60.0887 48.0883 60.3822 47.902 60.6559C47.7158 60.9295 47.4695 61.15 47.1631 61.3172C46.8633 61.4844 46.5401 61.5683 46.1934 61.5689L45.4934 61.5701L45.4842 62.0902C45.4845 62.2768 45.4948 62.4168 45.5149 62.5101C45.535 62.5967 45.5718 62.6567 45.6252 62.6899C45.6786 62.7232 45.7619 62.7397 45.8753 62.7395L46.2252 62.7289L46.2553 62.7788L46.1762 63.3189C46.0895 63.3191 45.9362 63.316 45.7161 63.3098C45.4961 63.3035 45.2861 63.3005 45.0861 63.3009C44.9128 63.3012 44.6595 63.3083 44.3262 63.3222C43.9995 63.3428 43.7829 63.3565 43.6762 63.3634L43.7453 62.7932ZM46.2024 60.8989C46.6689 60.7914 46.9017 60.4543 46.9008 59.8877C46.9004 59.581 46.8067 59.3578 46.6198 59.2182C46.4396 59.0718 46.1528 58.999 45.7594 58.9997C45.6861 58.9998 45.6395 59.0099 45.6195 59.0299C45.5995 59.0433 45.5862 59.0833 45.5797 59.15C45.5407 59.8101 45.5182 60.3634 45.5123 60.8101L46.2024 60.8989ZM48.7056 62.7845C48.9322 62.7507 49.0854 62.6871 49.1653 62.5937C49.2518 62.5002 49.2949 62.3401 49.2945 62.1134L49.3001 59.2634C49.2998 59.0967 49.2797 58.9868 49.2396 58.9335C49.2062 58.8736 49.1361 58.8437 49.0294 58.8439L48.7895 58.8643L48.7294 58.7844L48.7986 58.2743C49.0986 58.2738 49.3419 58.2767 49.5286 58.283L50.3886 58.2915C51.4286 58.2896 52.1919 58.255 52.6784 58.1874L52.7386 58.2873C52.6529 58.9075 52.5939 59.5543 52.5616 60.2276L51.7517 60.2791C51.7712 59.999 51.7809 59.7524 51.7805 59.539C51.7803 59.3857 51.7601 59.2757 51.72 59.2091C51.6866 59.1359 51.6165 59.086 51.5098 59.0595C51.4097 59.033 51.2464 59.02 51.0197 59.0204C50.8131 59.0207 50.6831 59.0343 50.6298 59.0611C50.5832 59.0878 50.5599 59.1578 50.5601 59.2712L50.4647 62.2114C50.465 62.4047 50.4852 62.5347 50.5253 62.6012C50.572 62.6612 50.6688 62.691 50.8154 62.6907C51.0088 62.6904 51.1821 62.6768 51.3354 62.6498L51.4155 62.7497L51.3264 63.3198L50.7564 63.3108L50.0564 63.2921C49.6097 63.2929 49.1397 63.3204 48.6465 63.3746L48.7056 62.7845ZM55.0907 63.2832L55.1299 62.7631C55.3232 62.7428 55.4599 62.7259 55.5398 62.7124C55.6198 62.6922 55.6731 62.6655 55.6997 62.6321C55.733 62.5987 55.7496 62.5487 55.7495 62.482C55.7494 62.4087 55.7359 62.332 55.7091 62.2521L55.5683 61.7323C55.4283 61.7259 55.185 61.723 54.8383 61.7236C54.685 61.7239 54.4317 61.741 54.0784 61.775L53.8992 62.2953C53.8727 62.3953 53.8595 62.4687 53.8595 62.5154C53.8597 62.602 53.8831 62.662 53.9298 62.6952C53.9832 62.7218 54.0799 62.735 54.2199 62.7347L54.5299 62.7342L54.58 62.8041L54.5208 63.3242C54.4408 63.3177 54.2708 63.308 54.0107 63.2951C53.7574 63.2889 53.5207 63.286 53.3007 63.2863C53.0674 63.2868 52.8541 63.2905 52.6607 63.2975C52.4741 63.3045 52.3508 63.308 52.2908 63.3081L52.3499 62.748C52.4699 62.7278 52.5665 62.681 52.6397 62.6075C52.7195 62.5274 52.7927 62.4106 52.8591 62.2571L54.293 58.3146L55.7628 58.182L55.8629 58.2418C55.9434 58.5417 56.1143 59.1547 56.3757 60.0809C56.6372 61.0071 56.8516 61.7167 57.0191 62.2098C57.0727 62.3897 57.1429 62.5195 57.2297 62.5994C57.3231 62.6792 57.4565 62.7257 57.6299 62.7387L57.67 62.7986L57.6108 63.2987C57.5374 63.2988 57.3974 63.2958 57.1907 63.2895C56.9907 63.2831 56.7841 63.2802 56.5707 63.2806C56.2707 63.2811 55.9774 63.2883 55.6908 63.3021C55.4041 63.3226 55.2208 63.3363 55.1408 63.3431L55.0907 63.2832ZM54.8372 61.0236C55.0572 61.0232 55.2505 61.0129 55.4172 60.9926L54.9646 59.3734L54.8446 59.3736L54.2972 61.0246L54.8372 61.0236ZM58.1294 62.7878C58.3627 62.7474 58.5159 62.6838 58.5891 62.597C58.669 62.5102 58.7087 62.3568 58.7084 62.1368L58.7139 59.2268C58.7136 59.0601 58.6935 58.9535 58.6534 58.9069C58.6133 58.8536 58.5333 58.8271 58.4133 58.8273L58.1733 58.8277L58.1231 58.7478L58.1824 58.2577L59.1824 58.2659C59.3691 58.2656 59.6124 58.2585 59.9124 58.2446C60.2123 58.2308 60.4123 58.2204 60.5123 58.2136L60.4632 58.7837C60.2632 58.8107 60.1366 58.8576 60.0834 58.9243C60.0302 58.9844 59.997 59.1112 59.984 59.3045L59.9356 60.3646L60.9257 60.3829C61.2123 60.3823 61.5157 60.3651 61.8356 60.3312L61.8439 59.2212C61.8436 59.0612 61.8235 58.9546 61.7834 58.9013C61.7433 58.8481 61.6633 58.8215 61.5433 58.8218L61.2933 58.8222L61.2431 58.7423L61.3124 58.2522C61.3124 58.2588 61.679 58.2615 62.4124 58.2602C62.5657 58.2599 62.789 58.2529 63.0823 58.239C63.3823 58.2252 63.579 58.2148 63.6723 58.208L63.6232 58.7681C63.4232 58.7951 63.2899 58.8353 63.2234 58.8888C63.1634 58.9422 63.1303 59.0456 63.1238 59.199C63.0978 59.599 63.0752 60.0857 63.0561 60.6591C63.037 61.2325 63.0278 61.7425 63.0285 62.1891C63.0288 62.3891 63.0523 62.5258 63.0991 62.599C63.1459 62.6723 63.236 62.7088 63.3693 62.7085C63.436 62.7084 63.496 62.705 63.5493 62.6982C63.6026 62.6915 63.6359 62.6881 63.6493 62.688L63.7094 62.7479L63.6302 63.2881C63.5502 63.2882 63.3935 63.2852 63.1602 63.2789C62.9268 63.2727 62.6702 63.2698 62.3902 63.2703L61.1902 63.2824L61.2593 62.7323C61.486 62.7252 61.6392 62.6749 61.7191 62.5815C61.7989 62.488 61.8387 62.3079 61.8383 62.0412L61.8368 61.1112L61.0268 61.1027C60.9335 61.1028 60.7468 61.1132 60.4668 61.1337C60.1935 61.1541 60.0102 61.1678 59.9169 61.1746L59.8985 62.1947C59.8988 62.408 59.919 62.5513 59.9592 62.6246C59.9993 62.6912 60.0826 62.7243 60.2093 62.7241C60.2826 62.724 60.3426 62.7206 60.3893 62.7138C60.4426 62.707 60.4759 62.7037 60.4893 62.7036L60.5394 62.7635L60.4702 63.2937C60.3902 63.2938 60.2402 63.2907 60.0202 63.2845C59.8068 63.2782 59.5968 63.2752 59.3902 63.2756C59.1635 63.276 58.9102 63.2831 58.6302 63.2969C58.3502 63.3107 58.1636 63.3244 58.0703 63.3379L58.1294 62.7878ZM64.4575 62.7666C64.6841 62.7395 64.8374 62.6793 64.9172 62.5858C64.9971 62.4857 65.0368 62.3189 65.0365 62.0856L65.042 59.2356C65.0418 59.0689 65.0249 58.9589 64.9915 58.9057C64.9581 58.8457 64.888 58.8158 64.7814 58.816L64.5414 58.8265L64.4813 58.7466L64.5505 58.2364C64.6571 58.2363 64.8605 58.2392 65.1605 58.2454C65.4672 58.2515 65.7938 58.2542 66.1405 58.2536C67.3205 58.2515 68.1604 58.2201 68.6604 58.1592L68.7305 58.249C68.7106 58.3357 68.6776 58.5258 68.6314 58.8192C68.5918 59.106 68.5623 59.4027 68.5428 59.7094L67.7128 59.7608C67.7128 59.7408 67.7161 59.7008 67.7227 59.6408C67.7292 59.5742 67.7325 59.5108 67.7324 59.4508C67.7321 59.3041 67.7086 59.2009 67.6619 59.1409C67.6151 59.081 67.5251 59.0412 67.3917 59.0214C67.2583 58.995 67.0383 58.982 66.7316 58.9826C66.5516 58.9829 66.4383 58.9964 66.3917 59.0232C66.3517 59.0499 66.3285 59.1166 66.322 59.2233L66.2738 60.3534L67.0138 60.3521C67.1338 60.3519 67.3038 60.3449 67.5237 60.3312C67.7437 60.3108 67.8903 60.2972 67.9637 60.2904L68.0438 60.3803L67.9249 61.1005C67.8516 61.1006 67.7116 61.0975 67.5049 61.0912C67.3049 61.0849 67.0916 61.082 66.8649 61.0824C66.6849 61.0827 66.4783 61.0997 66.245 61.1334C66.2321 61.4535 66.226 61.7801 66.2265 62.1135C66.2267 62.2601 66.2369 62.3635 66.257 62.4234C66.2771 62.4834 66.3205 62.5266 66.3872 62.5532C66.4539 62.5731 66.5672 62.5829 66.7272 62.5826C67.0606 62.582 67.3039 62.5616 67.4571 62.5213C67.6104 62.4744 67.7203 62.3942 67.7868 62.2807C67.8532 62.1606 67.9063 61.9672 67.9459 61.7004L68.7058 61.6391L68.7859 61.729C68.766 61.809 68.7297 61.9957 68.6768 62.2891C68.6306 62.5826 68.591 62.8926 68.5582 63.2194L68.4684 63.3095C68.3017 63.3031 67.9383 63.2938 67.3783 63.2814C66.825 63.2691 66.325 63.2633 65.8783 63.2641C65.565 63.2647 65.2616 63.2752 64.9683 63.2957C64.675 63.3229 64.4851 63.3399 64.3984 63.3467L64.4575 62.7666ZM69.5747 62.7576C69.8013 62.7305 69.9546 62.6702 70.0344 62.5767C70.1143 62.4766 70.154 62.3099 70.1536 62.0765L70.1592 59.2265C70.1589 59.0599 70.1421 58.9499 70.1087 58.8966C70.0753 58.8367 70.0052 58.8068 69.8986 58.807L69.6586 58.8174L69.5984 58.7375L69.6677 58.2274C69.7743 58.2272 69.9777 58.2302 70.2777 58.2363C70.5843 58.2424 70.911 58.2452 71.2577 58.2446C72.4377 58.2425 73.2776 58.211 73.7775 58.1501L73.8477 58.24C73.8278 58.3267 73.7948 58.5168 73.7486 58.8102C73.709 59.0969 73.6795 59.3936 73.6599 59.7003L72.83 59.7518C72.83 59.7318 72.8333 59.6918 72.8398 59.6318C72.8464 59.5651 72.8496 59.5018 72.8495 59.4418C72.8493 59.2951 72.8258 59.1918 72.7791 59.1319C72.7323 59.072 72.6422 59.0321 72.5089 59.0124C72.3755 58.9859 72.1555 58.973 71.8488 58.9735C71.6688 58.9739 71.5555 58.9874 71.5089 59.0141C71.4689 59.0409 71.4457 59.1076 71.4392 59.2143L71.3909 60.3443L72.1309 60.343C72.2509 60.3428 72.4209 60.3359 72.6409 60.3221C72.8609 60.3017 73.0075 60.2882 73.0808 60.2814L73.161 60.3712L73.0421 61.0914C72.9688 61.0916 72.8288 61.0885 72.6221 61.0822C72.4221 61.0759 72.2087 61.0729 71.9821 61.0733C71.8021 61.0736 71.5954 61.0907 71.3622 61.1244C71.3493 61.4444 71.3432 61.7711 71.3437 62.1044C71.3439 62.2511 71.3541 62.3544 71.3742 62.4144C71.3943 62.4743 71.4377 62.5176 71.5044 62.5441C71.5711 62.564 71.6844 62.5738 71.8444 62.5735C72.1777 62.573 72.421 62.5525 72.5743 62.5123C72.7276 62.4653 72.8374 62.3851 72.9039 62.2717C72.9704 62.1516 73.0235 61.9581 73.063 61.6914L73.8229 61.63L73.9031 61.7199C73.8832 61.7999 73.8468 61.9867 73.794 62.2801C73.7477 62.5735 73.7082 62.8836 73.6754 63.2103L73.5855 63.3005C73.4189 63.2941 73.0555 63.2847 72.4955 63.2724C71.9421 63.26 71.4421 63.2543 70.9955 63.255C70.6821 63.2556 70.3788 63.2661 70.0855 63.2867C69.7922 63.3138 69.6022 63.3308 69.5156 63.3377L69.5747 62.7576ZM75.8826 63.2464C75.6893 63.2467 75.4527 63.2572 75.1727 63.2777C74.8994 63.2981 74.7194 63.3118 74.6328 63.3186L74.6919 62.7485C74.9251 62.7081 75.0817 62.6478 75.1616 62.5677C75.2415 62.4809 75.2812 62.3375 75.2809 62.1375L75.2863 59.1675C75.2861 59.0341 75.266 58.9408 75.2259 58.8876C75.1858 58.8276 75.1191 58.7978 75.0257 58.7979L74.7457 58.8084L74.6756 58.7385L74.7648 58.2184L75.9549 58.2363C76.1748 58.2292 76.4215 58.2221 76.6948 58.215C76.9748 58.2011 77.1715 58.1908 77.2848 58.1839C77.8581 58.1829 78.2949 58.2888 78.5953 58.5016C78.9023 58.7077 79.0561 59.0075 79.0567 59.4008C79.057 59.6141 79.0073 59.8042 78.9076 59.9711C78.8078 60.1379 78.6914 60.2748 78.5582 60.3817C78.425 60.4819 78.3051 60.5521 78.1985 60.5923C78.4519 60.6452 78.7021 60.7681 78.9491 60.961C79.2027 61.1472 79.3298 61.407 79.3303 61.7403C79.3311 62.227 79.135 62.614 78.7421 62.9013C78.3492 63.182 77.8161 63.323 77.1428 63.3242L76.8327 63.3047C76.406 63.2655 76.0893 63.246 75.8826 63.2464ZM76.5081 60.3253C76.5748 60.3318 76.7015 60.3483 76.8882 60.3746C77.0749 60.3943 77.2016 60.4041 77.2682 60.404C77.2683 60.4173 77.3149 60.3939 77.4081 60.3337C77.508 60.2669 77.5945 60.1767 77.6677 60.0632C77.7475 59.9431 77.7873 59.7964 77.787 59.623C77.7866 59.383 77.6997 59.2065 77.5262 59.0935C77.3527 58.9805 77.0826 58.9243 76.7159 58.9249C76.6626 58.925 76.6259 58.9351 76.606 58.9551C76.586 58.9752 76.5727 59.0118 76.5661 59.0652C76.527 59.5986 76.5076 60.0186 76.5081 60.3253ZM76.4609 62.1454C76.4612 62.2987 76.518 62.4086 76.6314 62.4751C76.7449 62.5415 76.9349 62.5745 77.2016 62.5741C77.4549 62.5736 77.6515 62.5099 77.7913 62.383C77.9311 62.2561 78.0008 62.0793 78.0005 61.8527C78.0002 61.666 77.9333 61.5094 77.7998 61.383C77.6729 61.2499 77.4827 61.1569 77.2293 61.104L76.4893 61.1053L76.4609 62.1454ZM82.5126 63.2347L82.5517 62.7146C82.7451 62.6943 82.8817 62.6774 82.9617 62.6639C83.0416 62.6437 83.0949 62.617 83.1215 62.5836C83.1548 62.5502 83.1714 62.5002 83.1713 62.4335C83.1712 62.3602 83.1577 62.2835 83.131 62.2036L82.9901 61.6838C82.8501 61.6774 82.6068 61.6745 82.2601 61.6751C82.1068 61.6754 81.8535 61.6925 81.5002 61.7265L81.321 62.2468C81.2945 62.3468 81.2813 62.4202 81.2814 62.4669C81.2815 62.5535 81.3049 62.6135 81.3516 62.6467C81.405 62.6733 81.5017 62.6865 81.6417 62.6862L81.9517 62.6857L82.0018 62.7556L81.9426 63.2757C81.8626 63.2692 81.6926 63.2595 81.4326 63.2466C81.1792 63.2404 80.9426 63.2375 80.7226 63.2378C80.4892 63.2383 80.2759 63.242 80.0826 63.249C79.8959 63.256 79.7726 63.2595 79.7126 63.2596L79.7717 62.6995C79.8917 62.6793 79.9883 62.6325 80.0615 62.559C80.1414 62.4789 80.2145 62.3621 80.281 62.2086L81.7148 58.2661L83.1846 58.1335L83.2847 58.1933C83.3652 58.4932 83.5361 59.1062 83.7976 60.0324C84.059 60.9586 84.2735 61.6682 84.4409 62.1613C84.4945 62.3412 84.5647 62.4711 84.6515 62.5509C84.745 62.6307 84.8784 62.6772 85.0517 62.6902L85.0918 62.7501L85.0326 63.2502C84.9593 63.2504 84.8192 63.2473 84.6126 63.241C84.4126 63.2347 84.2059 63.2317 83.9926 63.2321C83.6926 63.2326 83.3992 63.2398 83.1126 63.2536C82.826 63.2741 82.6426 63.2878 82.5626 63.2946L82.5126 63.2347ZM82.259 60.9751C82.479 60.9747 82.6724 60.9644 82.839 60.9441L82.3865 59.3249L82.2665 59.3251L81.719 60.9761L82.259 60.9751Z" fill="#46877F"/>
<path d="M45.5137 92.9517C44.792 93.9323 40.0261 95.0171 39.5435 94.3357C38.9572 93.5044 40.6499 93.4819 42.6575 91.5548C44.6665 89.6277 43.5803 83.9693 44.0825 82.5019C44.6358 80.8863 47.8637 89.7574 45.5137 92.9517Z" fill="#53B1AC"/>
<path d="M42.6589 91.5548C35.0722 93.5204 30.8297 92.9654 27.9789 92.1987C22.9629 90.8518 11.4389 79.8813 7.62318 71.7931C6.61354 69.6541 4.9942 62.8087 4.82461 58.878C7.98126 58.0366 14.0609 59.7927 15.1777 60.2576C17.7013 61.3096 21.1947 64.1157 28.5667 69.6763C28.9318 69.9521 28.195 75.6603 28.5755 75.9411C28.9941 76.2504 30.5299 71.1322 30.968 71.4475C32.0844 72.2528 33.2618 73.0772 34.5071 73.9169C34.7835 74.1038 33.663 83.644 33.9463 83.8317C34.3268 84.0834 36.114 74.9836 36.5056 75.2382C37.5832 75.937 38.7076 76.644 39.8789 77.3556C42.9412 79.2156 42.6589 91.5548 42.6589 91.5548Z" fill="#B2D6D4"/>
<path d="M21.7244 76.5198C22.9646 74.6083 24.1116 70.1898 24.6163 66.6863C21.8746 64.609 19.8355 63.0764 18.2125 61.9872C17.6564 64.6471 16.7244 68.752 15.7367 70.8341L15.2271 71.8101L21.1689 77.1962L21.7244 76.5198Z" fill="#53B1AC"/>
<path d="M5.52242 58.7411C5.28677 58.7733 5.05361 58.819 4.82456 58.878C4.84353 59.3175 4.88343 59.7981 4.93521 60.3001C5.35091 64.2864 6.72649 69.8932 7.62313 71.7931C7.80849 72.1861 8.02725 72.5914 8.24737 72.9966C8.54188 73.5392 8.86412 74.0898 9.21413 74.6495C11.2197 74.1361 13.4533 73.1291 14.6064 72.2788C16.4665 74.1356 18.4234 75.9199 20.4713 77.6268C27.9254 83.8511 35.8285 88.5513 41.9489 91.7283C42.1846 91.6701 42.4151 91.6169 42.6588 91.5536C42.6588 91.5536 42.6642 91.2981 42.6648 90.8669C39.4643 89.2969 31.1217 84.7873 21.7256 76.5186C19.648 74.6874 17.6503 72.7913 15.7366 70.8342C16.7244 68.752 17.6563 64.6472 18.2124 61.9872C17.6921 61.6375 17.2092 61.3302 16.7653 61.0688C16.1865 60.729 15.6642 60.4598 15.1776 60.2576C14.1376 59.825 8.80209 58.2759 5.52242 58.7411Z" fill="#46877F"/>
<path d="M4.82457 58.878C4.84308 59.3071 4.85815 59.7516 4.87073 60.202C7.6276 64.6292 10.9777 68.6531 14.6064 72.2777C13.4518 73.1269 11.2197 74.135 9.21408 74.6483C10.3232 76.3939 11.5568 78.0785 12.9081 79.6927C15.5036 79.2051 18.8456 78.4082 20.4713 77.6256C35.5328 90.2032 52.4629 96.5847 52.7008 96.672C52.866 96.7332 53.0542 96.7354 53.2242 96.6782C53.3941 96.621 53.5319 96.5091 53.6071 96.3671C53.6823 96.2251 53.6888 96.0646 53.6252 95.9209C53.5617 95.7773 53.4332 95.6623 53.268 95.6011C52.9369 95.4787 20.0275 83.0806 5.50781 58.7198C5.27821 58.766 5.05033 58.8188 4.82457 58.878Z" fill="#53B1AC"/>
<path d="M7.41582 44.9815C6.46512 44.2564 5.23504 39.2261 5.85141 38.6812C6.6035 38.019 6.70069 39.8219 8.59556 41.8748C10.4906 43.9292 15.7404 42.5172 17.1371 42.9864C18.6749 43.5034 10.5128 47.3423 7.41582 44.9815Z" fill="#53B1AC"/>
<path d="M8.59565 41.8763C6.41386 33.8793 6.74289 29.3332 7.33269 26.2605C8.36839 20.8544 18.1235 8.07981 25.5261 3.64967C27.4838 2.4775 33.8212 0.443981 37.4945 0.0865223C38.4243 3.41278 37.0532 9.97091 36.668 11.182C35.7964 13.9187 33.3257 17.7678 28.4499 25.8743C28.2081 26.2759 22.8296 25.7473 22.5837 26.1653C22.313 26.6254 27.1748 28.032 26.8993 28.5131C26.1954 29.739 25.4763 31.0309 24.746 32.3957C24.5834 32.6987 15.5991 31.9335 15.4361 32.2439C15.2175 32.6607 23.8193 34.1562 23.5985 34.585C22.9926 35.7648 22.3811 36.995 21.7673 38.2752C20.1632 41.6224 8.59565 41.8763 8.59565 41.8763Z" fill="#B2D6D4"/>
<path d="M21.7338 18.89C23.5796 20.1257 27.7687 21.1495 31.0723 21.5299C32.8943 18.5146 34.2378 16.2725 35.1848 14.494C32.6689 14.0209 28.7831 13.2123 26.7889 12.2532L25.852 11.7539L21.0754 18.3285L21.7338 18.89Z" fill="#53B1AC"/>
<path d="M37.654 0.824029C37.6132 0.574337 37.5599 0.327916 37.4945 0.0864608C37.0837 0.126437 36.6355 0.190563 36.1676 0.268323C32.4534 0.890561 27.2648 2.60863 25.526 3.64961C25.1664 3.86482 24.7967 4.11617 24.4271 4.36898C23.9322 4.70724 23.4311 5.07541 22.9227 5.47359C23.4936 7.58793 24.5371 9.92294 25.3851 11.1136C23.7301 13.1795 22.1471 15.3452 20.6408 17.6044C15.1472 25.8282 11.1011 34.4619 8.40119 41.1274C8.46628 41.376 8.52653 41.6192 8.59671 41.8761C8.59671 41.8761 8.8362 41.8704 9.24005 41.8516C10.5664 38.3703 14.4142 29.2767 21.7349 18.8913C23.3563 16.5948 25.042 14.3806 26.7888 12.2532C28.783 13.2122 32.6689 14.0208 35.1848 14.4939C35.4888 13.9237 35.7549 13.3953 35.9797 12.9104C36.2719 12.2783 36.5005 11.7096 36.668 11.1819C37.0263 10.0541 38.237 4.29831 37.654 0.824029Z" fill="#46877F"/>
<path d="M37.4945 0.086498C37.0935 0.125522 36.6779 0.161562 36.2567 0.195225C32.2349 3.33231 28.6173 7.08351 25.3863 11.1136C24.5392 9.92131 23.4948 7.58786 22.9238 5.47352C21.3391 6.73396 19.8171 8.12435 18.3662 9.63706C18.9395 12.3812 19.836 15.907 20.6419 17.6044C9.54095 34.2211 4.3263 52.5508 4.25517 52.8082C4.20535 52.9869 4.21175 53.1877 4.27295 53.3662C4.33414 53.5448 4.44513 53.6865 4.5815 53.7603C4.71786 53.8341 4.86843 53.8338 5.00008 53.7596C5.13173 53.6854 5.23368 53.5433 5.28349 53.3645C5.38325 53.0061 15.5138 17.3767 37.6734 0.807527C37.6197 0.56492 37.5601 0.324442 37.4945 0.086498Z" fill="#53B1AC"/>
<path d="M110.007 41.987C111.16 41.3093 112.651 36.6072 111.904 36.0978C110.992 35.4788 110.874 37.1641 108.576 39.0831C106.278 41.0034 99.9112 39.6836 98.2174 40.1221C96.3524 40.6054 106.251 44.1938 110.007 41.987Z" fill="#53B1AC"/>
<path d="M108.576 39.0845C111.222 31.6093 110.823 27.3598 110.107 24.4876C108.851 19.4342 97.0212 7.49318 88.0439 3.35211C85.6697 2.25642 77.9842 0.355588 73.5295 0.021453C72.4018 3.13067 74.0646 9.2609 74.5317 10.3929C75.5888 12.9511 78.5851 16.5491 84.498 24.1266C84.7913 24.502 91.3139 24.0079 91.6121 24.3986C91.9405 24.8287 86.0444 26.1436 86.3786 26.5932C87.2322 27.7392 88.1042 28.9468 88.9899 30.2225C89.1871 30.5058 100.083 29.7905 100.28 30.0806C100.545 30.4702 90.1137 31.8681 90.3815 32.2689C91.1163 33.3718 91.8579 34.5217 92.6022 35.7183C94.5475 38.8471 108.576 39.0845 108.576 39.0845Z" fill="#B2D6D4"/>
<path d="M92.6429 17.5981C90.4045 18.7532 85.3241 19.7102 81.3179 20.0657C79.1083 17.2471 77.4789 15.1514 76.3305 13.4889C79.3816 13.0467 84.094 12.2908 86.5125 11.3944L87.6486 10.9276L93.4414 17.0732L92.6429 17.5981Z" fill="#53B1AC"/>
<path d="M73.336 0.710883C73.3854 0.477483 73.45 0.24714 73.5295 0.0214399C74.0276 0.0588075 74.5712 0.11875 75.1385 0.191436C79.6428 0.773073 85.9352 2.37904 88.0439 3.35209C88.48 3.55326 88.9284 3.78822 89.3766 4.02453C89.9767 4.34072 90.5844 4.68486 91.2009 5.05706C90.5086 7.03344 89.2432 9.2161 88.2147 10.3291C90.2219 12.2602 92.1416 14.2846 93.9683 16.3964C100.631 24.0835 105.537 32.154 108.812 38.3845C108.733 38.6169 108.66 38.8442 108.575 39.0844C108.575 39.0844 108.284 39.079 107.794 39.0615C106.186 35.8073 101.519 27.307 92.6415 17.5993C90.6751 15.4526 88.6308 13.3829 86.5125 11.3943C84.0941 12.2907 79.3816 13.0466 76.3305 13.4888C75.9617 12.9558 75.6391 12.4619 75.3664 12.0086C75.0121 11.4178 74.7348 10.8861 74.5317 10.3929C74.0972 9.33865 72.6289 3.95847 73.336 0.710883Z" fill="#46877F"/>
<path d="M73.5295 0.0214389C74.0158 0.0579171 74.5197 0.0916054 75.0305 0.123072C79.9079 3.05546 84.2951 6.5619 88.2134 10.329C89.2407 9.21454 90.5073 7.03334 91.1997 5.05696C93.1215 6.23516 94.9673 7.53483 96.7268 8.94884C96.0316 11.5139 94.9444 14.8097 93.967 16.3963C107.429 31.9288 113.753 49.0625 113.84 49.3031C113.9 49.4702 113.892 49.6578 113.818 49.8247C113.744 49.9916 113.609 50.1241 113.444 50.1931C113.279 50.262 113.096 50.2618 112.936 50.1924C112.777 50.1231 112.653 49.9902 112.593 49.8231C112.472 49.4881 100.186 16.1835 73.3125 0.695421C73.3776 0.468644 73.4499 0.243858 73.5295 0.0214389Z" fill="#53B1AC"/>
<path d="M46.579 24.4117C46.9976 24.9713 49.5984 25.5474 49.8377 25.1478C50.1283 24.6604 49.2156 24.6658 48.0755 23.5724C46.9345 22.479 47.348 19.1929 47.0329 18.3492C46.6858 17.4203 45.2159 22.5887 46.579 24.4117Z" fill="#53B1AC"/>
<path d="M48.0747 23.5724C52.2221 24.6276 54.491 24.2605 56.0038 23.7859C58.6655 22.9522 64.5415 16.479 66.3519 11.7572C66.831 10.5085 67.4957 6.52976 67.4678 4.25333C65.7415 3.80064 62.5191 4.88273 61.9315 5.16388C60.6037 5.79998 58.8067 7.46164 55.0035 10.7593C54.8151 10.9228 55.3853 14.218 55.1889 14.3846C54.9727 14.5681 53.9899 11.6231 53.7634 11.8103C53.1864 12.2883 52.577 12.7782 51.9315 13.2776C51.7883 13.3887 52.6816 18.8972 52.5346 19.0089C52.3372 19.1587 51.0981 13.9122 50.8949 14.0638C50.3355 14.4799 49.7511 14.9012 49.1416 15.3257C47.5481 16.4352 48.0747 23.5724 48.0747 23.5724Z" fill="#B2D6D4"/>
<path d="M58.8977 14.6452C58.1715 13.5525 57.4194 11.0082 57.0411 8.98625C58.4553 7.75446 59.5074 6.84548 60.3488 6.1976C60.7292 7.7308 61.3559 10.0961 61.9513 11.2902L62.2555 11.8495L59.2175 15.0306L58.8977 14.6452Z" fill="#53B1AC"/>
<path d="M67.0876 4.18167C67.2155 4.19774 67.3425 4.22166 67.4677 4.25328C67.4709 4.50786 67.4639 4.78636 67.4513 5.07746C67.3483 7.38868 66.7773 10.6481 66.3519 11.7572C66.2639 11.9866 66.1584 12.2235 66.0521 12.4604C65.9099 12.7776 65.753 13.0997 65.5814 13.4273C64.4852 13.152 63.2512 12.5935 62.6041 12.1139C61.6582 13.2085 60.658 14.2623 59.6064 15.2722C55.7792 18.9548 51.6637 21.7603 48.4625 23.6651C48.3337 23.634 48.2079 23.6056 48.0747 23.5717C48.0747 23.5717 48.064 23.4239 48.0506 23.1744C49.7273 22.2312 54.0854 19.5312 58.897 14.6446C59.9608 13.5624 60.9796 12.4435 61.9513 11.2902C61.3559 10.0961 60.7292 7.73081 60.3488 6.1976C60.6185 5.98959 60.8694 5.80656 61.1006 5.65048C61.4022 5.44755 61.6754 5.28611 61.9314 5.16383C62.4787 4.90224 65.3064 3.94802 67.0876 4.18167Z" fill="#46877F"/>
<path d="M67.4678 4.25329C67.4708 4.50181 67.4762 4.75916 67.4831 5.01993C66.1321 7.61169 64.4492 9.97654 62.6041 12.1133C63.2519 12.5922 64.4852 13.1513 65.5814 13.4267C65.0368 14.4488 64.4233 15.4369 63.7442 16.3857C62.331 16.1317 60.5061 15.7067 59.6064 15.2715C51.8732 22.713 42.945 26.5892 42.8195 26.6424C42.7324 26.6795 42.631 26.6828 42.5377 26.6516C42.4444 26.6203 42.3668 26.5571 42.322 26.4757C42.2771 26.3943 42.2687 26.3016 42.2986 26.2177C42.3285 26.1339 42.3943 26.066 42.4814 26.0288C42.6561 25.9544 60.0111 18.4233 67.0948 4.16913C67.2199 4.19341 67.3443 4.22148 67.4678 4.25329Z" fill="#53B1AC"/>
<path d="M77.5549 92.7573C78.1562 93.7869 82.2922 94.7749 82.7352 94.0221C83.2736 93.1037 81.7935 93.1438 80.0962 91.143C78.3977 89.1421 79.521 83.0016 79.1266 81.439C78.6921 79.7185 75.5969 89.4035 77.5549 92.7573Z" fill="#53B1AC"/>
<path d="M79.8505 90.9199C86.397 92.8694 90.1368 92.1776 92.6687 91.2886C97.1234 89.7269 107.735 77.6545 111.461 68.8575C112.447 66.531 114.192 59.1214 114.528 54.8835C111.805 54.047 106.4 56.0731 105.4 56.5987C103.141 57.7877 99.9493 60.8877 93.2309 67.0407C92.8981 67.3458 93.2702 73.4784 92.9238 73.7893C92.5426 74.1317 91.4429 68.6525 91.0445 69.0018C90.0288 69.8939 88.9588 70.808 87.8287 71.7401C87.5779 71.9475 88.1025 82.1994 87.8456 82.4079C87.5005 82.6874 86.3713 72.9247 86.0163 73.2076C85.0397 73.9842 84.0217 74.7706 82.9625 75.5631C80.1932 77.6344 79.8505 90.9199 79.8505 90.9199Z" fill="#B2D6D4"/>
<path d="M98.8926 74.2611C97.8985 72.2294 97.1058 67.4953 96.8315 63.7325C99.3306 61.4341 101.189 59.7381 102.661 58.5289C103.021 61.3819 103.64 65.783 104.405 68.004L104.805 69.044L99.3465 74.9774L98.8926 74.2611Z" fill="#53B1AC"/>
<path d="M113.924 54.7515C114.128 54.7809 114.33 54.825 114.528 54.8834C114.49 55.3574 114.433 55.8759 114.363 56.4179C113.809 60.721 112.337 66.7911 111.461 68.8575C111.28 69.2849 111.069 69.7263 110.857 70.1677C110.573 70.7587 110.265 71.3589 109.932 71.9695C108.201 71.4609 106.294 70.4256 105.326 69.5352C103.609 71.5764 101.811 73.5418 99.9365 75.4257C93.1146 82.2955 85.9726 87.5334 80.4636 91.0911C80.2601 91.0336 80.0609 90.9813 79.8506 90.9186C79.8506 90.9186 79.8581 90.6435 79.8782 90.179C82.7545 88.417 90.2722 83.3747 98.8916 74.2598C100.798 72.2413 102.637 70.1547 104.405 68.004C103.64 65.783 103.021 61.3819 102.661 58.5289C103.133 58.1407 103.571 57.799 103.972 57.5076C104.495 57.1288 104.965 56.8272 105.4 56.5986C106.331 56.1097 111.075 54.323 113.924 54.7515Z" fill="#46877F"/>
<path d="M114.528 54.8835C114.491 55.3461 114.457 55.8252 114.424 56.3107C111.8 61.1406 108.675 65.5493 105.326 69.534C106.296 70.4231 108.201 71.4597 109.932 71.9683C108.878 73.8732 107.718 75.715 106.458 77.4837C104.209 77.016 101.322 76.2315 99.9365 75.4245C86.1523 89.3063 71.0287 96.5549 70.8163 96.6543C70.6689 96.7238 70.504 96.7303 70.358 96.6725C70.2119 96.6146 70.0967 96.4971 70.0377 96.3458C69.9786 96.1945 69.9806 96.0218 70.0431 95.8657C70.1056 95.7095 70.2236 95.5828 70.3711 95.5133C70.6668 95.3741 100.064 81.2907 113.937 54.7281C114.136 54.7729 114.333 54.8247 114.528 54.8835Z" fill="#53B1AC"/>
<path fill-rule="evenodd" clip-rule="evenodd" d="M66.2187 90.9923L69.4804 80.7404C67.4418 80.5274 65.9129 78.9266 63.3493 78.1721L63.6933 81.3003L62.7403 82.336L62.8881 90.0276L63.8258 90.8583L64.2667 93.508C65.235 94.152 66.4251 94.5752 68.0152 95.0247L68.0534 96H56.2702L56.3696 95.0536C57.9546 94.6699 59.1294 94.2782 60.0518 93.6552L60.1946 90.9161L61.1629 90.0907L61.1323 82.3885L60.1996 81.1662L60.5793 77.7778C58.0132 77.7778 56.4206 78.7978 54.4125 78.6479L57.789 88.7763C54.8101 90.853 51.9942 90.8556 49 88.7763L52.6185 78.2247C51.844 77.8898 51.1109 77.4609 50.4347 76.9472L51.11 76.035C55.5414 78.6952 55.6663 74.9572 62.1032 75.7721C68.5401 76.587 68.4509 80.6641 72.518 78.7872L73.0276 79.773C72.5236 80.0782 71.9887 80.3259 71.4324 80.5117L75 90.9792C72.0134 93.0716 69.1976 93.069 66.2187 90.9923ZM53.4646 78.8135L50.5646 87.4883L56.2677 87.5198L53.4646 78.8135ZM70.5507 81.0532L67.7476 89.7411L73.4507 89.7095L70.5507 81.0532ZM61.9401 74.789C60.0468 74.789 60.1308 72 61.9095 72C63.6882 72 63.6704 74.789 61.9401 74.789Z" fill="#40746E"/>
</svg>
