<svg width="35" height="32" viewBox="0 0 35 32" fill="none" xmlns="http://www.w3.org/2000/svg">
<path d="M2 8L11.386 15.2666C13.5956 16.9772 14.7005 17.8326 15.8945 18.165C16.9499 18.4586 18.0501 18.4586 19.1055 18.165C20.2995 17.8326 21.4045 16.9772 23.6141 15.2666L33 8M7.51111 30H27.4889C29.4179 30 30.3826 30 31.1193 29.564C31.7674 29.1806 32.2944 28.5686 32.6246 27.816C33 26.9604 33 25.8402 33 23.6V8.4C33 6.1598 33 5.03968 32.6246 4.18404C32.2944 3.43138 31.7674 2.81946 31.1193 2.43598C30.3826 2 29.4179 2 27.4889 2H7.51111C5.58205 2 4.6175 2 3.8807 2.43598C3.23258 2.81946 2.70565 3.43138 2.37543 4.18404C2 5.03968 2 6.15978 2 8.4V23.6C2 25.8402 2 26.9604 2.37543 27.816C2.70565 28.5686 3.23258 29.1806 3.8807 29.564C4.6175 30 5.58203 30 7.51111 30Z" stroke="white" stroke-width="3" stroke-linecap="round" stroke-linejoin="round"/>
</svg>
