<svg width="14" height="17" viewBox="0 0 14 17" fill="none" xmlns="http://www.w3.org/2000/svg">
<path d="M6.99689 0C3.13947 0 1.65411e-06 2.79775 0 6.23394C-2.41754e-06 12.2801 6.603 16.8766 6.603 16.8766C6.83496 17.0411 7.16379 17.0411 7.39576 16.8766C7.39576 16.8766 14 12.2801 14 6.23394C14 2.79775 10.8543 0 6.99689 0ZM6.99689 3.40144C8.74616 3.40144 10.1816 4.6757 10.1816 6.23394C10.1816 7.7922 8.74617 9.06976 6.99689 9.06976C5.24762 9.06976 3.81715 7.7922 3.81716 6.23394C3.81717 4.6757 5.24763 3.40144 6.99689 3.40144Z" fill="white"/>
</svg>
