<svg width="38" height="28" viewBox="0 0 38 28" fill="none" xmlns="http://www.w3.org/2000/svg">
<path d="M35.1872 0.00260814C34.6961 0.021346 34.2336 0.138458 33.8224 0.269623H33.8167C33.3998 0.405473 31.4183 1.08941 28.409 2.12468C25.3996 3.16463 21.4936 4.51376 17.6163 5.85352C9.87296 8.52836 2.26099 11.161 2.26099 11.161L2.35236 11.1329C2.35236 11.1329 1.827 11.2735 1.2788 11.5826C0.998989 11.7325 0.690626 11.9387 0.422238 12.2619C0.153848 12.5851 -0.0631479 13.0817 0.0167985 13.5923C0.148138 14.4589 0.833387 14.9789 1.32448 15.2646C1.82129 15.5551 2.29525 15.6909 2.29525 15.6909H2.30667L9.44468 17.6631C9.76447 18.5063 11.6204 23.5093 12.0658 24.6617C12.3284 25.3503 12.5854 25.7813 12.9052 26.1092C13.0594 26.2778 13.2421 26.4184 13.4591 26.5308C13.5448 26.573 13.6361 26.6058 13.7275 26.6339C13.756 26.6479 13.7846 26.6526 13.8189 26.6573L13.7446 26.6432C13.7675 26.6479 13.7846 26.662 13.8017 26.6667C13.8588 26.6807 13.8988 26.6854 13.973 26.6948C15.1037 26.9758 16.0117 26.3996 16.0117 26.3996L16.063 26.3668L20.2773 23.2189L27.3411 27.6644L27.501 27.7207C28.9743 28.25 30.4647 27.9549 31.2527 27.4349C32.0465 26.9102 32.3548 26.2404 32.3548 26.2404L32.4062 26.1326L37.8654 3.19274C38.0196 2.62592 38.0595 2.09657 37.8882 1.58128C37.7169 1.06598 37.2772 0.583483 36.7462 0.325837C36.2094 0.0635061 35.6783 -0.0161298 35.1872 0.00260814ZM35.0387 2.46196C35.033 2.53691 35.0502 2.52754 35.0102 2.67276V2.68681L29.6024 25.3878C29.5796 25.4206 29.5396 25.4909 29.4311 25.5611C29.3169 25.6361 29.2255 25.6829 28.7516 25.5283L20.1117 20.0943L14.8924 23.9965L15.9888 18.2533C15.9888 18.2533 29.5225 7.90532 30.1049 7.4603C30.6874 7.01527 30.4933 6.92158 30.4933 6.92158C30.5332 6.37818 29.6138 6.76231 29.6138 6.76231L11.8145 15.808L11.8088 15.7846L3.27744 13.4283V13.4236C3.27173 13.4236 3.26031 13.419 3.2546 13.419C3.26031 13.419 3.30028 13.4049 3.30028 13.4049L3.34597 13.3862L3.39165 13.3721C3.39165 13.3721 11.0093 10.7394 18.7527 8.06459C22.63 6.72483 26.5359 5.3757 29.5396 4.33575C32.5433 3.30048 34.7646 2.54159 34.8903 2.49943C35.0102 2.46196 34.9531 2.46196 35.0387 2.46196Z" fill="white"/>
</svg>
