<svg width="36" height="36" viewBox="0 0 36 36" fill="none" xmlns="http://www.w3.org/2000/svg">
<path fill-rule="evenodd" clip-rule="evenodd" d="M4.18608 18C4.18608 9.9524 10.5582 3.42856 18.4186 3.42856C26.279 3.42856 32.6512 9.9524 32.6512 18C32.6512 26.0475 26.279 32.5714 18.4186 32.5714C15.6186 32.5714 13.0124 31.7454 10.8134 30.319C10.4041 30.0536 9.90265 29.9826 9.43843 30.1244L4.61753 31.5975L6.43267 27.249C6.64721 26.7351 6.60356 26.1464 6.31569 25.6715C4.96583 23.4445 4.18608 20.8181 4.18608 18ZM18.4186 0C8.7087 0 0.837245 8.05886 0.837245 18C0.837245 21.151 1.62948 24.117 3.02174 26.696L0.134743 33.6119C-0.120475 34.2234 -0.0073483 34.9307 0.425003 35.4268C0.857355 35.9231 1.53096 36.1186 2.15329 35.9283L9.6872 33.6265C12.2608 35.1368 15.2434 35.9999 18.4186 35.9999C28.1286 35.9999 36 27.9411 36 18C36 8.05886 28.1286 0 18.4186 0ZM22.2572 21.7412L20.0567 23.3281C19.0261 22.7271 17.8866 21.8881 16.7437 20.718C15.5555 19.5015 14.6746 18.2456 14.0251 17.0936L15.4236 15.8784C16.0237 15.3569 16.1879 14.4777 15.8182 13.7662L14.0364 10.3376C13.7964 9.87593 13.3638 9.55164 12.8615 9.45691C12.3591 9.36219 11.842 9.50741 11.4572 9.85128L10.9289 10.3233C9.65843 11.4585 8.90707 13.3239 9.5298 15.2127C10.1754 17.1708 11.5532 20.2525 14.3758 23.1423C17.4124 26.2513 20.4971 27.4757 22.3009 27.9512C23.7543 28.3342 25.1297 27.8207 26.0988 27.0123L27.0892 26.186C27.5129 25.8327 27.7414 25.2898 27.7016 24.7318C27.6616 24.1738 27.3582 23.6708 26.8887 23.3843L24.0785 21.6701C23.5108 21.324 22.7975 21.3517 22.2572 21.7412Z" fill="white"/>
</svg>
